<svg width="254" height="196" viewBox="0 0 254 196" fill="none" xmlns="http://www.w3.org/2000/svg">
<g clip-path="url(#clip0)">
<path opacity="0.25" d="M247.611 171.943C235.292 171.845 222.881 169.032 212.009 163.965C191.158 150.153 171.61 134.202 153.831 116.585C154.408 115.368 154.511 113.927 153.947 112.584C153.664 111.973 153.272 111.396 152.776 110.941C149.15 107.592 145.005 104.9 140.48 102.928C138.883 102.231 137.079 102.115 135.424 102.599C131.631 103.689 127.746 104.64 124.097 105.39C120.177 105.632 116.274 105.707 112.366 105.649C109.414 99.7286 106.44 93.814 103.43 87.9225C102.739 86.5678 101.839 85.3976 100.865 84.3196C104.439 70.4612 105.581 56.2282 104.157 42.1219C104.024 37.268 103.719 32.3104 103.252 27.3758C103.834 24.603 103.799 21.6976 103.177 19.1553C102.71 15.5754 101.609 12.1512 99.8966 8.96333C98.6514 6.66322 96.3571 5.19898 93.7514 5.04333C90.6558 4.8531 87.7273 5.88498 85.3119 8.01216C84.6201 8.70392 84.0033 9.45333 83.4499 10.2489C73.7191 1.81509 59.0249 1.59604 49.1269 10.393C47.2418 12.0763 45.6219 14.0074 44.296 16.1462C34.5076 31.9703 24.3329 47.7367 14.0774 63.019C2.04074 80.9357 -2.20785 103.303 2.41544 124.39C3.25709 128.201 4.3005 131.965 5.51685 135.568C7.47109 141.402 8.64709 147.46 9.01026 153.594C10.3419 175.852 29.4461 192.794 51.7959 191.537C61.7631 190.938 70.8021 186.672 77.5641 180.066C77.5814 180.06 77.5987 180.066 77.616 180.054C89.1627 172.208 100.98 164.553 112.775 157.226C113.974 158.961 115.11 160.731 116.338 162.443C117.266 163.74 117.248 165.458 116.291 166.743C115.571 167.7 115.017 168.767 114.631 169.908C113.3 173.926 114.706 178.284 118.13 180.769C121.14 182.936 124.708 184.112 128.42 184.159C131.314 184.193 134.208 184.931 136.773 186.286C144.049 190.131 152.136 192.131 160.328 192.131C161.181 192.131 162.052 192.108 162.905 192.062C164.64 191.975 166.237 191.215 167.401 189.923C168.566 188.632 169.16 186.966 169.062 185.237C168.941 182.815 167.499 180.677 165.291 179.656C155.071 174.947 146.003 168.369 138.365 160.097C136.185 155.341 133.92 150.539 131.683 145.743C133.891 144.44 136.099 143.143 138.29 141.857C153.947 155.41 171.886 165.383 191.688 171.522C193.723 172.151 195.141 174.001 195.205 176.117C195.297 178.526 196.219 180.844 197.804 182.66C200.744 185.992 204.895 187.767 209.132 187.767C211.415 187.767 213.727 187.248 215.865 186.176C217.462 185.381 219.295 185.196 221.013 185.634C230.813 188.177 241.138 187.001 250.102 182.314C252.788 180.919 253.826 177.598 252.431 174.906C251.491 173.09 249.641 171.96 247.611 171.943ZM124.783 109.949C128.772 109.142 132.79 108.162 136.699 107.033C137.333 106.848 138.03 106.894 138.635 107.159C142.688 108.918 146.389 111.339 149.565 114.792C144.158 117.121 138.416 118.297 132.116 118.297C132.11 118.297 132.104 118.297 132.098 118.297C129.873 118.268 127.723 117.772 125.717 116.827C124.241 116.135 122.546 115.939 120.949 116.273C104.266 119.876 86.8107 120.067 70.0585 116.873C69.6204 116.792 69.2053 116.579 68.8594 116.285C52.4127 101.735 36.923 85.8242 22.7937 69.02C20.3494 66.1146 20.1938 61.9295 22.419 58.8396C23.9812 56.6836 26.4889 55.398 29.1521 55.398C30.9046 55.398 32.5706 55.9399 33.9887 56.9603C39.2116 60.7304 43.5697 65.7284 46.5904 71.4182C49.8936 77.6325 53.8885 83.4433 58.4311 88.793C58.6156 89.2311 58.9326 89.5885 59.3534 89.8479C60.0625 90.6608 60.7485 91.4966 61.4864 92.2864C65.1354 96.1891 68.7038 100.167 72.1914 104.214C72.497 104.565 72.8947 104.819 73.3386 104.934C85.5194 108.168 98.0577 109.863 110.659 110.163C110.769 110.174 110.855 110.249 110.965 110.249C111.063 110.249 111.149 110.197 111.247 110.186C112.331 110.203 113.409 110.295 114.493 110.295C117.767 110.307 121.076 110.203 124.783 109.949ZM59.0594 113.547C56.2463 119.006 53.485 124.551 50.8851 130.132C48.4639 125.405 48.8732 119.582 52.2167 115.19C53.3927 113.645 54.7936 112.273 56.1829 110.918C57.1398 111.806 58.1025 112.67 59.0594 113.547ZM87.7043 49.1433C84.8853 56.6605 83.2827 64.4775 82.9484 72.4443C75.7367 68.3917 67.9774 65.6073 59.8665 64.1546C60.0625 63.7107 60.3219 63.3072 60.5928 62.9037C61.8841 63.8088 63.3945 64.293 64.9337 64.293C66.4498 64.293 67.9601 63.8433 69.2572 62.9152C70.6523 61.9179 72.105 61.0071 73.6211 60.1885C83.1329 55.0233 89.0993 45.0907 89.157 34.2589C89.1627 32.9849 88.1366 31.9472 86.8741 31.9415C86.8684 31.9415 86.8626 31.9415 86.8568 31.9415C85.5828 31.9415 84.5625 32.9618 84.551 34.23C84.4933 43.3729 79.4665 51.7663 71.4305 56.1302C69.753 57.041 68.1504 58.0498 66.5881 59.1566C65.3776 60.0098 63.7 59.8023 62.7431 58.6839C60.1893 55.6805 58.408 52.0545 57.6183 48.1864C57.4972 47.6099 57.1744 47.143 56.742 46.8144C59.4745 44.0935 63.0717 42.266 67.1012 41.8452C73.0792 41.2226 78.4634 38.3114 82.2393 33.6478C84.9199 30.3504 86.5052 26.4477 87.0298 22.3432C91.1573 30.5637 91.5551 40.3752 87.7043 49.1433ZM47.53 54.3489C46.8959 57.2831 46.6826 60.2577 46.7287 63.2323C43.8867 59.4276 40.5201 56.0149 36.6693 53.2363C36.5137 53.121 36.3177 53.0576 36.162 52.948C38.3469 52.5791 40.5547 52.3428 42.7972 52.337C44.763 52.337 46.6423 51.9565 48.4293 51.3512C48.0719 52.3197 47.7549 53.317 47.53 54.3489ZM67.5105 92.1308C68.4847 92.3556 69.459 92.5458 70.4332 92.7533C70.1219 93.2837 69.8222 93.814 69.5051 94.3502C68.8364 93.6065 68.1792 92.8629 67.5105 92.1308ZM107.068 105.401C96.3167 104.888 85.6232 103.378 75.1949 100.674C74.3936 99.7517 73.5519 98.8697 72.7449 97.9531C74.3936 95.0535 76.0596 92.1653 77.7774 89.306C78.965 87.323 80.6829 85.7204 82.7351 84.6655C88.8053 81.5698 96.2245 83.9852 99.3202 90.0266C101.926 95.1342 104.503 100.265 107.068 105.401ZM88.4594 11.3787C89.843 10.1624 91.607 9.5398 93.4747 9.6551C94.4778 9.71274 95.3598 10.2777 95.8325 11.1597C97.2794 13.846 98.2076 16.7342 98.6457 19.9912C99.1645 22.1933 99.176 24.5223 98.6687 26.7186C98.6111 26.9607 98.5938 27.2086 98.6169 27.4565C99.0953 32.4084 99.4066 37.3833 99.5507 42.4159C100.859 55.4096 99.8793 68.3802 96.8529 81.0395C92.0278 78.232 85.9287 77.8343 80.631 80.5552C77.8063 82.0022 75.4485 84.2043 73.8113 86.9252C73.4827 87.4671 73.1887 88.0147 72.8601 88.5566C69.2111 87.8303 65.5736 86.9598 62.0052 85.9395C58.6905 82.0425 55.6871 77.8919 53.0526 73.4935C51.0811 67.6365 50.7121 61.3645 52.015 55.3173C52.3493 53.7955 52.9027 52.3831 53.5945 51.0457C54.4304 54.003 55.7101 56.8046 57.4453 59.3353C56.1252 60.9379 55.1971 62.8576 54.7993 64.9098C54.488 66.5009 55.5487 68.0516 57.2436 68.3859C66.7957 69.8617 75.7771 73.234 83.9284 78.4107C84.649 78.8662 85.5483 78.8892 86.2804 78.4799C87.0183 78.0706 87.4737 77.2866 87.4679 76.4392C87.3699 67.648 88.8976 59.0125 91.9413 50.8785C97.4236 38.4325 95.3771 23.9573 86.7761 13.5405C87.2834 12.7277 87.8541 11.9898 88.4594 11.3787ZM48.2103 18.5731C49.294 16.8206 50.6314 15.2296 52.1764 13.846C60.8869 6.10404 74.1803 6.73815 82.1067 15.195C82.3027 15.9905 82.4469 16.8033 82.5333 17.6219C83.0233 22.372 81.6398 27.0299 78.6249 30.7366C75.6214 34.4433 71.3383 36.7607 66.5939 37.2507C64.2477 37.4929 61.9879 38.1097 59.9241 39.0436C60.1029 38.346 60.3046 37.6543 60.4141 36.9279C60.5756 35.6654 59.7051 34.501 58.4311 34.328C57.2378 34.1666 56.0042 35.0371 55.8427 36.2996C54.9607 42.7964 49.3401 47.7079 42.7742 47.7194C41.6616 47.7194 40.549 47.8175 39.4479 47.8982C49.4612 42.0931 57.4972 33.4287 62.4721 22.7467C63.014 21.5938 62.5125 20.2218 61.3653 19.6799C60.2124 19.1496 58.8404 19.6453 58.3043 20.7983C52.5684 33.1117 42.4513 42.5658 29.8036 47.4773C36.041 37.9194 42.2092 28.2809 48.2103 18.5731ZM51.5134 186.937C31.8443 188.142 14.7923 173.044 13.6163 153.329C13.23 146.797 11.9733 140.324 9.8865 134.109C8.72203 130.656 7.72474 127.053 6.91768 123.416C2.71521 104.242 6.37003 83.9795 16.8214 67.4174C17.3114 69.0604 18.1012 70.6342 19.2599 72.0062C29.7344 84.4637 40.9698 96.4082 52.7644 107.707C51.2656 109.189 49.8359 110.733 48.5619 112.399C43.097 119.577 43.5293 129.624 49.6053 136.3C50.0377 136.784 50.6718 137.055 51.3117 137.055C51.4327 137.055 51.548 137.049 51.6691 137.021C52.4358 136.899 53.093 136.409 53.4158 135.7C56.3154 129.342 59.4053 123.001 62.599 116.775C63.6827 117.755 64.7377 118.781 65.833 119.749C66.8014 120.603 67.9717 121.179 69.2169 121.404C75.1718 122.551 81.2363 123.133 87.3065 123.445C86.6436 133.648 85.923 143.846 85.1044 154.038C83.6517 171.724 69.2284 185.871 51.5134 186.937ZM85.4157 169.337C87.7273 164.772 89.2377 159.733 89.6585 154.395C90.2004 147.668 90.6846 140.941 91.1631 134.207C91.6243 133.579 92.218 133.066 92.7426 132.495C96.6684 138.911 101.591 144.688 107.437 149.449C108.307 150.792 109.253 152.084 110.158 153.415C101.88 158.575 93.6189 163.913 85.4157 169.337ZM134.727 162.944C142.821 171.793 152.459 178.82 163.372 183.841C164.012 184.135 164.444 184.752 164.461 185.461C164.496 185.969 164.323 186.453 163.977 186.828C163.637 187.202 163.17 187.427 162.663 187.45C154.379 187.865 146.21 186.055 138.918 182.204C135.707 180.509 132.092 179.587 128.466 179.535C125.705 179.501 123.059 178.636 120.823 177.01C119.03 175.719 118.298 173.453 119.001 171.361C119.226 170.698 119.566 170.058 119.981 169.499C122.154 166.611 122.189 162.691 120.09 159.757C116.995 155.445 114.009 151.075 111.12 146.642C110.994 146.434 110.821 146.256 110.636 146.1C103.211 140.099 97.3544 132.386 93.3652 123.727C93.59 123.727 93.8148 123.762 94.0397 123.762C101.142 123.762 108.273 123.168 115.294 122.038C121.826 135.447 128.236 148.994 134.347 162.339C134.421 162.558 134.56 162.76 134.727 162.944ZM247.969 178.209C240.019 182.366 230.853 183.415 222.172 181.161C219.37 180.429 216.407 180.746 213.807 182.037C209.57 184.164 204.405 183.161 201.269 179.599C200.387 178.59 199.868 177.299 199.816 175.944C199.672 171.862 196.951 168.311 193.049 167.107C173.356 161.002 155.543 150.971 140.094 137.297C139.344 136.64 138.272 136.525 137.408 137.021C134.837 138.514 132.277 140.024 129.717 141.534C126.512 134.726 123.255 127.93 119.964 121.145C120.603 121.018 121.261 120.92 121.901 120.781C122.5 120.655 123.163 120.724 123.722 120.995C126.339 122.234 129.135 122.88 132.502 122.914C138.595 122.914 144.527 121.727 150.159 119.479C168.26 137.459 188.189 153.721 209.737 167.971C221.497 173.488 234.577 176.451 247.56 176.549C247.888 176.549 248.171 176.734 248.326 177.016C248.568 177.454 248.401 177.985 247.969 178.209Z" fill="#FF85A5"/>
</g>
<defs>
<clipPath id="clip0">
<rect width="253.647" height="196" fill="white"/>
</clipPath>
</defs>
</svg>
