<svg width="142" height="222" viewBox="0 0 142 222" fill="none" xmlns="http://www.w3.org/2000/svg">
<path opacity="0.25" d="M125.486 89.093C130.491 51.2723 108.361 15.0056 72.1853 2.35157C56.0651 -3.29429 38.6482 4.21334 31.6603 19.7987C20.202 45.3691 18.4159 74.0525 26.5593 100.814C16.5693 104.169 9.61667 113.493 9.39467 124.174C9.07681 139.835 9.96985 155.627 12.0688 171.162C13.5017 181.763 12.0284 192.56 7.81544 202.394C5.50967 207.777 3.34012 213.302 1.37744 218.822C1.00408 219.871 1.55403 221.027 2.60349 221.4C2.82549 221.486 3.05758 221.516 3.27958 221.516C4.11208 221.516 4.88404 221.001 5.18172 220.174C7.11917 214.725 9.2534 209.281 11.5239 203.983C16.0345 193.478 17.5986 181.939 16.0698 170.612C13.9961 155.294 13.1081 139.699 13.431 124.255C13.6328 114.684 20.2727 106.399 29.5815 104.134C29.5916 104.134 29.5967 104.123 29.6068 104.123C29.6269 104.118 29.6471 104.123 29.6723 104.118C34.4807 102.968 39.4303 102.383 44.3748 102.383C44.3748 102.383 44.3748 102.383 44.3798 102.383C47.4273 102.383 50.2982 101.197 52.4576 99.0376C54.6171 96.8781 55.8078 94.0073 55.8078 90.9497C55.8078 90.6621 55.7977 90.3897 55.7775 90.1021C55.6716 88.7953 55.4899 87.4936 55.2528 86.2121C55.3789 86.2171 55.5101 86.2524 55.6363 86.2524C57.6242 86.2524 59.6121 85.7176 61.3729 84.6076C65.818 81.8074 69.9805 78.5783 73.7646 74.991C81.7868 67.3925 82.8413 54.9252 76.4942 46.025C82.6698 50.127 87.574 55.9343 90.5861 62.8264C88.1138 65.8284 85.7273 68.9112 83.5477 72.11C81.6557 74.885 80.8686 78.2503 81.3227 81.5753C81.6153 83.7448 81.9836 85.9093 82.4175 88.0587C82.6345 89.1334 82.6345 90.2232 82.4175 91.2979C82.0997 92.8367 81.8524 94.3655 81.58 95.9044C78.6637 91.7066 77.6395 86.424 78.9563 81.3382C79.2439 80.2635 78.5931 79.1585 77.5083 78.876C76.4538 78.6086 75.3287 79.2443 75.0461 80.324C73.0885 87.8367 75.2984 95.7026 80.7323 101.157C78.3559 117.908 78.5931 134.835 81.5396 151.596C82.6244 157.797 88.0735 162.212 94.1835 162.212C94.8748 162.212 95.5609 162.156 96.2623 162.04C98.0938 161.732 99.9152 161.309 101.711 160.814C97.12 167.484 93.7194 175.017 91.9484 182.913C88.689 197.429 94.3753 212.439 106.434 221.148C106.792 221.405 107.206 221.531 107.609 221.531C108.24 221.531 108.861 221.233 109.254 220.694C109.905 219.79 109.698 218.529 108.795 217.873C98.0483 210.098 92.9827 196.728 95.8788 183.786C97.7809 175.295 101.605 167.181 106.933 160.315C107.261 159.891 107.387 159.366 107.347 158.877C107.473 158.821 107.615 158.786 107.746 158.74C111.161 157.303 114.194 155.017 116.505 152.121C126.061 140.173 133.619 126.848 138.977 112.509C139.991 109.8 140.264 106.863 139.764 104.007C138.452 96.3887 132.61 90.6571 125.486 89.093ZM51.7462 90.3947L51.7664 90.9447C51.7664 92.9225 50.9995 94.7792 49.5918 96.1768C48.2043 97.5694 46.3425 98.3413 44.3698 98.3413C39.7279 98.3413 35.1013 98.9064 30.5603 99.86C22.6138 73.9768 24.2535 46.2067 35.3434 21.4486C38.4565 14.4859 43.9712 9.38998 50.4849 6.70075C48.8148 8.82489 47.7502 11.3628 47.4626 14.1125C47.3516 15.2427 47.3617 16.3578 47.503 17.4526C37.8662 31.0198 33.9963 48.129 36.8974 64.5368C37.4121 67.443 38.4514 70.1978 39.9853 72.7155C42.2053 76.3734 44.8339 79.7942 47.7805 82.8972C48.6786 83.8457 49.7381 84.5572 50.8582 85.1071C51.2972 86.8377 51.61 88.6137 51.7462 90.3947ZM70.9845 72.0444C67.3922 75.4501 63.4315 78.5228 59.2185 81.1767C56.499 82.8922 52.9168 82.4381 50.7119 80.1121C47.9621 77.2211 45.5151 74.0222 43.4414 70.6115C42.1649 68.5177 41.3072 66.2371 40.8783 63.8254C38.3404 49.4963 41.3223 34.5971 49.0721 22.3467C49.5111 23.1691 50.0257 23.9512 50.6312 24.6979C51.1609 25.3487 51.7563 25.9542 52.392 26.4991C59.7332 32.8412 66.5445 39.8897 72.6394 47.4529C78.5376 54.7839 77.8161 65.5812 70.9845 72.0444ZM135.213 111.091C130.001 125.027 122.65 137.978 113.366 149.588C111.474 151.954 108.997 153.826 106.197 154.997C102.791 156.425 99.234 157.444 95.6063 158.044C90.8737 158.781 86.3429 155.612 85.5154 150.885C82.0845 131.323 82.3721 111.545 86.3631 92.0951C86.686 90.4957 86.686 88.8559 86.3631 87.2413C85.9393 85.1828 85.5911 83.1091 85.3086 81.0253C84.9907 78.6842 85.5558 76.3179 86.8828 74.3704C90.3843 69.219 94.3198 64.2845 98.563 59.7234C99.3248 58.9061 99.2845 57.6296 98.4621 56.8778C97.6497 56.121 96.3682 56.1613 95.6164 56.9787C94.8697 57.7809 94.1886 58.6538 93.457 59.4762C92.7405 58.013 91.9534 56.6003 91.0856 55.2431C93.0836 53.9413 95.2279 52.902 97.458 52.4277C100.516 51.9938 103.588 52.7859 106.071 54.6376C107.63 55.793 108.492 57.7153 108.321 59.6477C107.912 64.3148 106.671 68.8002 104.547 73.1998C103.336 76.55 101.338 79.6126 98.7648 82.0697C96.8728 83.8912 95.9444 86.54 96.3077 89.1384C97.2512 95.97 98.2401 102.786 99.2794 109.598C99.6831 112.242 100.526 114.779 101.782 117.151C105.46 124.068 107.872 131.505 108.941 139.265C109.083 140.269 109.94 141.006 110.939 141.006C111.035 141.006 111.126 141.001 111.217 140.991C112.327 140.839 113.099 139.82 112.948 138.715C111.807 130.486 109.259 122.595 105.349 115.254C104.305 113.296 103.608 111.187 103.275 108.997C102.236 102.206 101.257 95.4099 100.314 88.5986C100.132 87.2716 100.601 85.9295 101.57 84.9961C104.582 82.1202 106.933 78.5177 108.27 74.7892C110.526 70.1473 111.898 65.1776 112.352 60.0161C112.65 56.7012 111.161 53.4015 108.477 51.4186C105.137 48.9362 101.015 47.8868 96.7668 48.4822C93.8858 49.0826 91.1411 50.2682 88.689 51.903C83.8 45.687 77.2661 40.8484 69.703 38.0936C65.0713 32.9573 60.2377 28.0027 55.0258 23.492C54.5666 23.0934 54.1428 22.6545 53.7594 22.1802C50.1367 17.7301 50.8128 11.1609 55.2629 7.54839C56.8926 6.22648 58.7342 5.24262 60.7271 4.60689C64.0723 4.5413 67.488 5.02566 70.8382 6.19116C105.263 18.2347 126.283 52.7557 121.464 88.7297C120.43 88.7348 119.396 88.7752 118.351 88.9568C116.565 89.2696 114.85 89.8347 113.225 90.642C112.231 91.1465 111.827 92.3524 112.322 93.3514C112.816 94.3504 114.027 94.749 115.031 94.2545C116.298 93.6188 117.65 93.1748 119.037 92.9326C122.857 92.2666 126.696 93.1294 129.86 95.3544C133.023 97.5744 135.132 100.909 135.803 104.714C136.177 106.838 135.97 109.048 135.213 111.091Z" fill="#FF85A5"/>
<path opacity="0.25" d="M24.9801 206.824C23.421 210.804 21.645 214.755 19.6874 218.569C19.1778 219.558 19.5764 220.779 20.5602 221.289C20.863 221.44 21.1708 221.511 21.4836 221.511C22.2202 221.511 22.9266 221.112 23.2747 220.416C25.2929 216.481 27.1345 212.404 28.7389 208.297C30.1365 204.725 30.969 200.966 31.2162 197.131C31.5543 191.753 33.0023 186.46 35.3283 181.591C39.0165 187.555 39.6018 194.987 36.5644 201.551C33.9812 207.151 31.6855 212.979 29.7379 218.862C29.3898 219.927 29.965 221.067 31.0195 221.415C31.2314 221.486 31.4433 221.516 31.6502 221.516C32.4978 221.516 33.2849 220.986 33.5674 220.139C35.4595 214.392 37.6997 208.711 40.2224 203.246C44.3142 194.387 42.8914 184.18 36.7511 176.727C36.6452 176.541 36.514 176.384 36.3525 176.233C36.1255 175.966 35.9438 175.688 35.7067 175.431C27.306 166.495 25.858 152.918 32.185 142.413C32.7551 141.46 32.4524 140.213 31.4887 139.643C30.5402 139.073 29.2939 139.376 28.7188 140.335C21.5088 152.312 23.1334 167.762 32.6088 178.004C29.5008 183.821 27.5835 190.305 27.1698 196.884C26.973 200.29 26.2263 203.64 24.9801 206.824Z" fill="#FF85A5"/>
</svg>
