<svg width="68" height="68" viewBox="0 0 68 68" fill="none" xmlns="http://www.w3.org/2000/svg">
<g clip-path="url(#clip0)">
<path d="M27.4772 34.5876C27.2289 34.3406 26.8875 34.1985 26.5371 34.1985C26.1878 34.1985 25.8452 34.3406 25.5982 34.5876C25.3512 34.8347 25.2104 35.1773 25.2104 35.5265C25.2104 35.8756 25.3512 36.2183 25.5982 36.4653C25.8466 36.7124 26.1879 36.8545 26.5371 36.8545C26.8877 36.8545 27.2289 36.7124 27.4772 36.4653C27.7243 36.2183 27.865 35.8756 27.865 35.5265C27.865 35.1773 27.7243 34.8345 27.4772 34.5876Z" fill="#FF8A00"/>
<path d="M64.283 24.9662C63.163 23.8832 61.8681 23.0406 60.465 22.4618C59.5542 16.9021 56.9642 11.855 52.9643 7.85497C42.5051 -2.604 25.4869 -2.604 15.0278 7.85497C11.7148 11.168 9.34002 15.2623 8.11695 19.7491C7.36099 19.72 6.60103 19.9097 5.92143 20.3166C4.70819 21.043 3.98397 22.3207 3.98397 23.7348V34.2174C3.04711 34.6282 2.39035 35.5633 2.39035 36.65V42.5065C1.05015 42.6404 0 43.7743 0 45.1492V64.0064C0 66.2031 1.78712 67.9904 3.98397 67.9904H16.2014C18.3981 67.9904 20.1853 66.2032 20.1853 64.0064V49.8284C23.2096 51.6518 26.5335 52.8421 30.0124 53.3564V60.0142H29.3709C25.7051 60.0142 22.7227 62.9966 22.7227 66.6624C22.7227 67.3958 23.3173 67.9904 24.0507 67.9904H43.9419C44.6753 67.9904 45.2698 67.3958 45.2698 66.6624C45.2698 62.9966 42.2874 60.0142 38.6217 60.0142H37.9806V53.3555C41.6891 52.8071 45.2125 51.4944 48.3799 49.4741V62.7436C48.3799 65.6368 50.7336 67.9905 53.6268 67.9905H57.5444C60.4375 67.9905 62.7912 65.6368 62.7912 62.7436V47.1027L66.7393 39.0907C69.0844 34.3311 68.0975 28.655 64.283 24.9662ZM6.63995 23.7349C6.63995 23.0556 7.09164 22.7119 7.28568 22.5955C7.47985 22.4792 7.99609 22.2433 8.59494 22.5643L12.8444 24.8413C13.2767 25.0729 13.5451 25.5214 13.5451 26.0117V33.994H6.63995V23.7349ZM5.04647 36.6503H15.1391V42.4933H5.04647V36.6503ZM17.5294 64.0065C17.5294 64.7387 16.9337 65.3345 16.2014 65.3345H3.98397C3.25178 65.3345 2.65598 64.7389 2.65598 64.0065V45.1493H17.5292V64.0065H17.5294ZM38.6218 62.6702C40.3578 62.6702 41.8385 63.7839 42.3869 65.3345H25.6058C26.1542 63.7839 27.6349 62.6702 29.371 62.6702H31.3404H36.6523H38.6218ZM32.6684 60.0142V53.6153C33.1064 53.6364 33.5459 53.6481 33.9872 53.6481C34.1084 53.6481 34.2301 53.6473 34.3515 53.6457C34.6769 53.6415 35.0009 53.6306 35.3243 53.6149V60.0142H32.6684ZM20.1852 46.6612V45.1492C20.1853 43.7743 19.1352 42.6404 17.795 42.5066V36.6501C17.795 35.5635 17.1384 34.6283 16.2014 34.2175V26.0119C16.2014 24.5406 15.3959 23.195 14.0991 22.5003L10.6284 20.6408C11.7139 16.5242 13.8733 12.766 16.9061 9.7332C26.3296 0.309636 41.6629 0.309768 51.0864 9.7332C54.3967 13.0435 56.6359 17.149 57.6147 21.6769C57.0268 21.5904 56.429 21.5458 55.8251 21.5458C55.141 21.5458 54.4654 21.6057 53.8026 21.7163C52.7307 17.5584 50.3435 13.7979 47.0057 11.0431C43.3563 8.03134 38.7362 6.37265 33.9966 6.37265C30.4007 6.37265 26.8639 7.31933 23.7683 9.11057C20.7663 10.8476 18.2359 13.3379 16.4504 16.3125C16.0729 16.9412 16.2767 17.757 16.9057 18.1345C17.5344 18.5117 18.3501 18.3082 18.7277 17.6792C21.9791 12.2625 27.6872 9.02836 33.9967 9.02836C35.6993 9.02836 37.3572 9.273 38.9332 9.73107L29.1329 19.5313C28.6143 20.0499 28.6143 20.8908 29.1329 21.4093C29.3923 21.6686 29.732 21.7983 30.0719 21.7983C30.4117 21.7983 30.7516 21.6685 31.0109 21.4093L41.6505 10.7698C43.3429 11.5802 44.8955 12.6515 46.2503 13.9362L29.1868 30.9998C28.6682 31.5184 28.6682 32.3592 29.1868 32.8779C29.4462 33.1372 29.7859 33.2669 30.1258 33.2669C30.4657 33.2669 30.8055 33.1372 31.0648 32.8779L48.0387 15.9039C49.5208 17.7999 50.6311 20.0105 51.246 22.4355C49.8192 23.0148 48.5033 23.8675 47.3668 24.9665L47.2162 25.1122C43.503 28.7029 42.4625 34.2667 44.6268 38.9567L45.3505 40.5251C42.1626 43.1701 38.1612 44.6182 33.9961 44.6182C30.5604 44.6182 27.2262 43.6376 24.3543 41.7824C23.7383 41.3842 22.9162 41.5613 22.5183 42.1774C22.1203 42.7934 22.2972 43.6155 22.9133 44.0134C26.2155 46.1465 30.048 47.274 33.9962 47.274C38.5472 47.274 42.9273 45.7689 46.4968 43.0084L48.0903 46.4612C39.8644 52.3728 28.5084 52.4677 20.1852 46.6612ZM60.1349 62.7436C60.1349 64.1723 58.9726 65.3345 57.544 65.3345H53.6264C52.1977 65.3345 51.0355 64.1723 51.0355 62.7436V54.4268H60.1347V62.7436H60.1349ZM60.1349 51.7709H51.0356V48.0971H60.1349V51.7709ZM64.3564 37.9168L60.6486 45.4412H59.9673V39.9874C59.9673 39.254 59.3727 38.6594 58.6393 38.6594C57.9059 38.6594 57.3113 39.254 57.3113 39.9874V45.4412H50.5446L47.0385 37.8437C45.3465 34.1774 46.1601 29.8284 49.0628 27.0211L49.2134 26.8754C52.9208 23.2901 58.7293 23.29 62.4369 26.8754C65.4185 29.7589 66.19 34.196 64.3564 37.9168Z" fill="#FF8A00"/>
<path d="M59.5784 34.5876C59.3314 34.3406 58.9887 34.1985 58.6395 34.1985C58.2902 34.1985 57.9477 34.3406 57.7007 34.5876C57.4537 34.8347 57.3116 35.1773 57.3116 35.5265C57.3116 35.8756 57.4537 36.2183 57.7007 36.4653C57.9477 36.7124 58.2904 36.8545 58.6395 36.8545C58.9888 36.8545 59.3314 36.7124 59.5784 36.4653C59.8254 36.2183 59.9675 35.8756 59.9675 35.5265C59.9675 35.1773 59.8254 34.8345 59.5784 34.5876Z" fill="#FF8A00"/>
</g>
<defs>
<clipPath id="clip0">
<rect width="68" height="68" fill="white"/>
</clipPath>
</defs>
</svg>
