<svg width="51" height="68" viewBox="0 0 51 68" fill="none" xmlns="http://www.w3.org/2000/svg">
<path d="M49.4454 45.3333H44.7562C44.3797 43.9566 43.3403 42.859 41.9861 42.4081L41.3603 42.1995L39.2454 31.6211V22.6667C39.2419 19.5385 36.7069 17.0035 33.5787 17V7.93333C33.5787 3.55187 30.0269 0 25.6454 0C21.2639 0 17.7121 3.55187 17.7121 7.93333V17C14.5839 17.0035 12.0489 19.5385 12.0454 22.6667V31.6211L9.92975 42.1995L9.30401 42.4081C7.9501 42.8591 6.91097 43.9568 6.53457 45.3333H1.8454C1.21952 45.3333 0.712067 45.8408 0.712067 46.4667V66.8667C0.712067 67.4926 1.21952 68 1.8454 68H6.37873C7.00462 68 7.51207 67.4926 7.51207 66.8667V52.1333H18.6339L17.7751 56.2478L14.4736 61.7502C14.1516 62.287 14.3255 62.9832 14.8623 63.3052C15.0384 63.4108 15.24 63.4667 15.4454 63.4667H22.2454C22.7459 63.4668 23.1872 63.1386 23.3311 62.6592L25.0714 56.8486L27.9546 67.1714C28.0913 67.661 28.5371 67.9997 29.0454 68H36.1384C36.7643 68 37.2717 67.4926 37.2717 66.8667C37.2717 66.6883 37.2296 66.5124 37.1487 66.3533L34.2881 60.7241L32.4552 52.1333H43.7787V66.8667C43.7787 67.4926 44.2862 68 44.9121 68H49.4454C50.0713 68 50.5787 67.4926 50.5787 66.8667V46.4667C50.5787 45.8408 50.0713 45.3333 49.4454 45.3333ZM29.6027 17L29.5768 13.8998C30.6945 12.6755 31.3136 11.0771 31.3121 9.41927V17H29.6027ZM22.4048 10.5855L29.0454 6.74843V9.41927C29.047 10.8855 28.314 12.2552 27.0931 13.0672C26.2165 13.6516 25.0743 13.6516 24.1977 13.0672C23.3215 12.482 22.6851 11.6011 22.4048 10.5855ZM25.6454 2.26667C27.1022 2.2661 28.5027 2.82852 29.5543 3.83647L19.9787 9.36955V7.93333C19.9823 4.80519 22.5173 2.27021 25.6454 2.26667ZM19.9787 11.9874L20.3993 11.7443C20.6987 12.544 21.1492 13.2788 21.7259 13.9086V17H19.9787V11.9874ZM10.0207 44.5584L11.2705 44.1419C11.6564 44.0133 11.9437 43.6877 12.0234 43.2889L14.2901 31.9556C14.3047 31.8824 14.3121 31.808 14.3121 31.7333V22.6667C14.3142 20.7897 15.8351 19.2688 17.7121 19.2667H22.8592C23.4851 19.2667 23.9926 18.7592 23.9926 18.1333V15.4813C25.069 15.8722 26.2489 15.8691 27.3232 15.4727L27.3454 18.1427C27.3505 18.7649 27.8564 19.2667 28.4787 19.2667H33.5787C35.4555 19.2688 36.9766 20.7899 36.9787 22.6667V31.7333C36.9787 31.808 36.9861 31.8824 37.0007 31.9556L39.2674 43.2889C39.3471 43.6877 39.6344 44.0133 40.0203 44.1419L41.2701 44.5584C41.6879 44.6972 42.0486 44.9695 42.2965 45.3333H37.8803L34.7121 31.6043V22.6667C34.7122 22.0408 34.2049 21.5332 33.579 21.5331C33.0476 21.5329 32.5875 21.9021 32.4723 22.4209L31.914 24.9333H18.4524L18.8287 22.7658L16.5955 22.3782C16.5955 22.3782 16.0121 25.2875 15.9734 26.01C15.916 27.1269 16.1234 28.2417 16.5787 29.2632V31.6043L13.4105 45.3333H8.99432C9.24224 44.9695 9.60278 44.6972 10.0207 44.5584ZM26.5841 30.6C26.5652 30.6 26.547 30.6021 26.5283 30.6024C25.6256 30.5766 24.7334 30.8007 23.9499 31.2498C23.8751 31.2928 23.8053 31.3439 23.742 31.4024L20.6332 34.2823L20.6781 34.1703C21.0227 33.3082 20.9823 32.3401 20.5675 31.5096C20.3379 31.0504 19.9507 30.6374 19.663 30.214C19.0196 29.2678 18.5 28.3346 18.303 27.2H31.4102L30.4017 31.7381C30.3513 31.9679 30.3248 32.2024 30.3225 32.4377C29.4324 31.274 28.0491 30.594 26.5841 30.6ZM16.5799 41.7581C16.5799 41.8165 16.5787 41.8748 16.5787 41.9333C16.578 43.1596 16.9758 44.3527 17.7121 45.3333H15.7367L16.5787 41.6826V41.7013C16.5787 41.7208 16.5797 41.7391 16.5799 41.7581ZM20.2196 44.54C19.3707 43.861 18.8681 42.8394 18.8482 41.7526C18.8496 41.6154 18.8528 41.4784 18.8577 41.3417C18.9522 39.7655 19.6502 38.2864 20.8069 37.2116L21.9752 36.1292L20.2196 44.54ZM31.1153 36.6698C31.271 36.1478 31.3356 35.603 31.3065 35.0591L32.1258 36.4245C32.3146 36.7401 32.4862 37.0658 32.6398 37.4H30.8958L31.1153 36.6698ZM30.217 39.6667H33.3788C33.5116 40.327 33.5784 40.9989 33.5787 41.6724V41.8632C33.5767 43.4432 32.5094 44.8232 30.9806 45.2223L29.9708 40.4892L30.217 39.6667ZM35.3195 44.3167L35.5541 45.3333H34.7091C34.9475 45.0167 35.1521 44.676 35.3195 44.3167ZM5.2454 65.7333H2.97873V52.1333H5.2454V65.7333ZM2.97873 49.8667V47.6H19.5802L19.1071 49.8667H2.97873ZM21.4018 61.2H17.447L19.8172 57.2498C19.8824 57.1411 19.9289 57.0223 19.9548 56.8983L24.6563 34.3748C24.8675 33.5156 25.6234 32.9012 26.5076 32.8699C26.56 32.8722 26.6124 32.8749 26.6648 32.8803L26.666 32.8691C28.0226 32.9136 29.0863 34.0493 29.0419 35.406C29.0351 35.6149 29.0016 35.822 28.9424 36.0223L21.4018 61.2ZM34.2912 65.7333H29.9056L26.3396 52.9619L26.2262 52.9937L28.6178 45.0082L32.1028 61.3424C32.1232 61.4386 32.1563 61.5316 32.2009 61.6193L34.2912 65.7333ZM31.4879 47.6H48.3121V49.8667H31.9715L31.4879 47.6ZM48.3121 65.7333H46.0454V52.1333H48.3121V65.7333Z" fill="#9B51E0"/>
</svg>
