<svg width="50" height="68" viewBox="0 0 50 68" fill="none" xmlns="http://www.w3.org/2000/svg">
<path d="M31.7943 23.8003C33.0462 23.8003 34.061 22.7854 34.061 21.5336C34.061 20.2817 33.0462 19.2668 31.7943 19.2668C30.5424 19.2668 29.5276 20.2817 29.5276 21.5336C29.5276 22.7854 30.5424 23.8003 31.7943 23.8003Z" fill="#5BC7F0"/>
<path d="M26.0088 20.9078L23.9812 19.8936L20.5812 26.6936C20.435 26.9871 20.4225 27.3305 20.5484 27.6343C20.6731 27.938 20.9247 28.1715 21.2364 28.2758L24.6364 29.409L25.3539 27.2591L23.1937 26.5394L26.0088 20.9078Z" fill="#5BC7F0"/>
<path d="M17.061 23.8003C18.3129 23.8003 19.3277 22.7854 19.3277 21.5336C19.3277 20.2817 18.3129 19.2668 17.061 19.2668C15.8092 19.2668 14.7943 20.2817 14.7943 21.5336C14.7943 22.7854 15.8092 23.8003 17.061 23.8003Z" fill="#5BC7F0"/>
<path d="M34.061 34V36.2667H34.1302L34.061 34Z" fill="#5BC7F0"/>
<path d="M24.9943 0C16.245 0 9.12772 7.11729 9.12772 15.8667V19.2667H11.3944V15.8667C11.3944 8.36745 17.4952 2.26671 24.9944 2.26671C32.4937 2.26671 38.5944 8.36745 38.5944 15.8667V18.1334H40.8611V15.8667C40.861 7.11729 33.7437 0 24.9943 0Z" fill="#5BC7F0"/>
<path d="M38.5932 17H37.46C36.8445 17 36.3425 17.4918 36.3267 18.1062L36.1124 26.9587C36.1407 31.2585 33.6599 35.2512 29.7794 37.1349L29.7534 37.1485C29.7206 37.162 29.6864 37.1757 29.6536 37.1927L27.5128 38.2682C25.9296 39.057 24.0358 39.0582 22.4525 38.2682L20.1733 37.1292C16.3053 35.2512 13.8244 31.2585 13.8539 26.9257L13.6611 18.1085C13.6476 17.493 13.1444 17 12.5279 17H11.3946C8.89438 17 6.86128 19.0332 6.86128 21.5333C6.86128 24.0334 8.89451 26.0666 11.3946 26.0666H11.568L11.5885 26.9426C11.5522 32.1117 14.534 36.9103 19.1727 39.1622L21.4405 40.2954C22.549 40.8485 23.765 41.125 24.9822 41.125C26.1972 41.125 27.412 40.8495 28.5194 40.2977C28.5217 40.2965 28.5239 40.2954 28.5262 40.2943L30.7804 39.1665C35.4304 36.9101 38.4122 32.1115 38.3782 26.9775L38.4009 26.0663H38.5936C41.0938 26.0663 43.1269 24.0331 43.1269 21.533C43.1265 19.0332 41.0933 17 38.5932 17ZM11.3943 23.8C10.1443 23.8 9.1276 22.7835 9.1276 21.5333C9.1276 20.2833 10.1441 19.2666 11.3943 19.2666L11.5178 23.7999H11.3943V23.8ZM38.5943 23.8H38.4571L38.5671 19.2667H38.5943C39.8443 19.2667 40.861 20.2833 40.861 21.5334C40.861 22.7835 39.8445 23.8 38.5943 23.8Z" fill="#5BC7F0"/>
<path d="M21.2634 5.99878L19.6587 7.60023C20.197 8.14304 21.5944 9.87146 21.5944 11.3335H23.8611C23.861 8.67349 21.5285 6.26401 21.2634 5.99878Z" fill="#5BC7F0"/>
<path d="M28.7265 5.99878C28.4612 6.26401 26.1277 8.67349 26.1277 11.3333H28.3944C28.3944 9.87133 29.7929 8.14304 30.3302 7.6001L28.7265 5.99878Z" fill="#5BC7F0"/>
<path d="M35.0867 9.07104C33.9342 9.17982 32.8687 9.71253 32.089 10.5693L33.7652 12.0958C34.1665 11.6573 34.7115 11.3841 35.3009 11.3274L35.0867 9.07104Z" fill="#5BC7F0"/>
<path d="M16.0342 9.07202L15.8212 11.3285C16.4117 11.384 16.9557 11.6572 17.3557 12.0958L19.033 10.5715C18.2522 9.71351 17.188 9.18093 16.0342 9.07202Z" fill="#5BC7F0"/>
<path d="M13.7419 13.1808L11.4747 18.8467L13.5789 19.6887L15.8462 14.0228L13.7419 13.1808Z" fill="#5BC7F0"/>
<path d="M36.2046 13.0936L34.1774 14.1072L36.4439 18.6401L38.4711 17.6265L36.2046 13.0936Z" fill="#5BC7F0"/>
<path d="M38.5943 2.26685H32.9276V4.53356H38.5943C41.7188 4.53356 44.261 7.07559 44.261 10.2003V39.3292C41.5705 38.3228 39.7288 35.7479 39.7277 32.7763V24.9336H37.461V32.7763C37.4621 37.3243 40.7205 41.1698 45.2085 41.9178C45.2708 41.928 45.332 41.9336 45.3944 41.9336C45.6607 41.9336 45.9214 41.8395 46.1266 41.665C46.3816 41.4497 46.5278 41.1335 46.5278 40.8003V10.2001C46.5277 5.82542 42.9678 2.26685 38.5943 2.26685Z" fill="#5BC7F0"/>
<path d="M27.592 29.7988C27.0842 30.3076 26.3804 30.6001 25.663 30.6001H22.7277V32.8668H25.6642C26.98 32.8668 28.2674 32.3318 29.1967 31.4003L27.592 29.7988Z" fill="#5BC7F0"/>
<path d="M18.2068 38.5332V43.2797C18.2102 43.8542 17.784 44.3416 17.2163 44.4129L7.01625 45.6822C3.02006 46.1787 0.0304456 49.5888 0.0609925 53.6065V67.9999H2.3277H2.3289V53.5975C2.30738 50.7222 4.44261 48.2855 7.29742 47.9307L17.4986 46.6615C19.2076 46.4484 20.4872 44.9864 20.4736 43.2705V38.5332H18.2068Z" fill="#5BC7F0"/>
<path d="M42.9837 45.7379L32.786 44.4697C32.216 44.3971 31.7898 43.9109 31.7943 43.3272V38.5332H29.5276V43.3192C29.514 45.0419 30.7935 46.5039 32.5048 46.7192L42.7048 47.9875C45.5586 48.3433 47.6948 50.7789 47.6723 53.6632V67.9999H49.939V53.6712C49.9695 49.6456 46.9799 46.2342 42.9837 45.7379Z" fill="#5BC7F0"/>
<path d="M34.154 44.8867L33.4287 46.5765C31.9814 49.9527 28.6732 52.1332 24.9989 52.1332C24.9955 52.1332 24.9922 52.1332 24.9887 52.1332C21.3167 52.1332 18.0085 49.9515 16.5612 46.5754L15.8359 44.8867L13.7529 45.7809L14.4782 47.4685C16.2825 51.6799 20.4077 54.3999 24.9876 54.3999C24.9911 54.3999 24.9956 54.3999 25.0001 54.3999C29.5811 54.3999 33.7076 51.6799 35.5118 47.4697L36.2371 45.7809L34.154 44.8867Z" fill="#5BC7F0"/>
<path d="M9.12771 55.5332V58.6657L9.0099 58.9025C7.60342 61.712 6.86113 64.8582 6.86113 67.9998H9.12784C9.12784 65.2083 9.78739 62.4125 11.0376 59.9158L11.2756 59.4397C11.3538 59.2833 11.3946 59.1088 11.3946 58.9332V55.5332H9.12771Z" fill="#5BC7F0"/>
<path d="M10.261 57.8H1.19429V60.0668H10.261V57.8Z" fill="#5BC7F0"/>
<path d="M48.7944 57.8H39.7277V60.0668H48.7944V57.8Z" fill="#5BC7F0"/>
<path d="M40.9788 58.9025L40.861 58.6657V55.5332H38.5943V58.9332C38.5943 59.1089 38.6351 59.2823 38.7133 59.4398L38.9513 59.9158C40.2025 62.4136 40.8621 65.2085 40.861 67.9998H43.1277C43.1288 64.8593 42.3865 61.7133 40.9788 58.9025Z" fill="#5BC7F0"/>
</svg>
