<svg width="42" height="68" viewBox="0 0 42 68" fill="none" xmlns="http://www.w3.org/2000/svg">
<path d="M24.0682 6.50959L19.1837 8.54468L19.9669 10.4243L24.8513 8.38925L24.0682 6.50959Z" fill="#50D38D"/>
<path d="M20.5791 14.449L20.5007 16.4836L25.7884 16.6874L25.8668 14.6527L20.5791 14.449Z" fill="#50D38D"/>
<path d="M18.8334 0.000627757L15.2549 3.89819L16.7547 5.27522L20.3332 1.37765L18.8334 0.000627757Z" fill="#50D38D"/>
<path d="M17.453 40.8998V36.1473H15.9407V13.4077L6.66602 5.18286H3.50288V36.1473H1.9907V40.8998H0.0640259V68.0002H19.3794V40.8998H17.453ZM5.89306 7.21911L13.9046 14.3235V36.1476H5.53913V7.21911H5.89306ZM15.4167 38.1835V40.8998H4.02682V38.1835H15.4167ZM17.3433 65.964H2.10027V63.7498H17.3433V65.964ZM17.3433 61.7136H2.10027V42.9359H17.3433V61.7136Z" fill="#50D38D"/>
<path d="M8.48388 26.4944H6.44763V29.2742H8.48388V26.4944Z" fill="#50D38D"/>
<path d="M8.48388 13.4927H6.44763V25.2401H8.48388V13.4927Z" fill="#50D38D"/>
<path d="M22.6206 39.1555V67.9999H41.936V39.1555H22.6206ZM39.8999 65.9638H24.6569V45.442H39.8999V65.9638ZM39.8999 43.4058H24.6569V41.1916H39.8999V43.4058Z" fill="#50D38D"/>
<path d="M35.3569 22.5615C34.0337 22.5615 33.0647 23.1071 32.272 23.7575C31.4326 23.0637 30.522 22.5615 29.1925 22.5615C26.7413 22.5615 24.7472 24.5793 24.7472 27.0595C24.7473 28.187 25.0896 28.8792 25.316 29.3375L25.3301 29.366C26.2805 31.2915 31.0809 35.3022 31.6253 35.7534L32.2731 36.2902L32.9225 35.755C33.8188 35.0163 38.3342 31.2352 39.2268 29.3514L39.2505 29.3019C39.4732 28.8333 39.8097 28.1252 39.8097 27.0595C39.8095 24.5793 37.812 22.5615 35.3569 22.5615ZM37.4112 28.4277L37.3865 28.4797C36.9021 29.5018 34.2236 31.9837 32.2762 33.6399C30.3394 31.9853 27.668 29.5024 27.1557 28.4649L27.1414 28.4356C26.9493 28.047 26.7834 27.7112 26.7834 27.0595C26.7834 25.6788 27.8417 24.5975 29.1925 24.5975C30.1261 24.5975 30.6603 25.0035 31.5772 25.8656L32.2824 26.5286L32.9804 25.8576C33.8492 25.022 34.4554 24.5976 35.3569 24.5976C36.7118 24.5976 37.7732 25.679 37.7732 27.0595C37.7732 27.6661 37.5974 28.0359 37.4112 28.4277Z" fill="#50D38D"/>
</svg>
