<svg width="68" height="68" viewBox="0 0 68 68" fill="none" xmlns="http://www.w3.org/2000/svg">
<g clip-path="url(#clip0)">
<path d="M33.5258 39.0323C32.8638 38.7172 32.0716 38.9981 31.7563 39.6602L31.5361 40.1229C31.2209 40.785 31.5021 41.5772 32.164 41.8925C32.3483 41.9803 32.5425 42.0219 32.7339 42.0219C33.2301 42.0219 33.7061 41.7426 33.9336 41.2646L34.1538 40.8019C34.4691 40.1397 34.1878 39.3474 33.5258 39.0323Z" fill="#FF7C7C"/>
<path d="M18.6455 31.3376C18.127 30.8191 17.2863 30.8191 16.7678 31.3376C15.6671 32.4385 13.8758 32.4385 12.775 31.3376C12.2565 30.8191 11.4158 30.8191 10.8973 31.3376C10.3788 31.8561 10.3788 32.6968 10.8973 33.2153C11.9653 34.2832 13.3684 34.8174 14.7714 34.8174C16.1744 34.8174 17.5773 34.2834 18.6454 33.2153C19.1639 32.6969 19.1639 31.8562 18.6455 31.3376Z" fill="#FF7C7C"/>
<path d="M63.4019 3.52745C58.7241 -1.15021 51.1228 -1.16375 46.4265 3.48389C44.9605 2.75608 43.404 2.13172 41.763 1.61774C36.3795 -0.0685811 31.9751 -0.00602645 31.5932 0.00234074C24.3906 0.00712199 18.1081 3.02927 15.1937 7.89193C14.8091 8.53368 14.4886 9.19881 14.2315 9.88319C12.8589 11.1902 6.66453 17.5919 6.66453 26.6691C6.66453 32.715 3.75647 35.8715 2.02313 37.2151C1.3754 37.7171 1.02465 38.5055 1.08508 39.3239C1.14551 40.1427 1.60836 40.8713 2.32329 41.273C2.97646 41.6401 3.71104 41.9925 4.42133 42.3333C5.0494 42.6346 5.9419 43.0628 6.37712 43.3414V45.7063C6.37712 46.0298 6.31536 46.3458 6.19358 46.6458L5.86433 47.4562C5.41343 48.5658 5.57945 49.8361 6.29504 50.7921V51.0834C6.29504 51.9449 6.67436 52.7423 7.30615 53.2833V54.8422C7.30615 58.1831 10.024 60.901 13.3649 60.901H17.2853C18.0185 60.901 18.613 60.3065 18.613 59.5733C18.613 58.84 18.0185 58.2455 17.2853 58.2455H13.3649C11.4884 58.2455 9.96147 56.7187 9.96147 54.8421V52.5513C9.96147 52.0193 9.64391 51.5389 9.15463 51.3301L9.09726 51.3057C9.00801 51.2676 8.95036 51.1803 8.95036 51.0834V50.3339C8.95036 50.0361 8.85022 49.7469 8.66615 49.5129L8.43186 49.2151C8.26266 49.0002 8.22162 48.7091 8.32455 48.4557L8.65379 47.6451C8.90508 47.0263 9.03258 46.3741 9.03258 45.7063V42.8797C9.03258 41.6003 7.72929 40.975 5.57002 39.9391C5.00304 39.6671 4.42 39.3872 3.90429 39.1114C6.03965 37.3686 9.32012 33.567 9.32012 26.669C9.32012 21.6776 11.5419 17.5184 13.4694 14.8487C13.5748 17.1621 14.2746 19.5814 15.5696 22.0038C18.9772 28.3771 24.9112 31.0485 29.6793 33.1947C34.216 35.2368 36.7836 36.5223 36.8042 39.1945C36.8192 41.1568 36.3679 42.6006 35.4628 43.4855C34.4178 44.5074 33.0307 44.4812 33.0224 44.4811C32.5768 44.4499 32.1591 44.6445 31.8877 44.9988C31.6163 45.3532 31.5545 45.8211 31.7007 46.2427C31.7397 46.3551 32.6802 49.022 34.8335 51.6207C37.5248 54.8686 40.9221 56.5825 44.71 56.6208L48.2776 67.0806C48.4658 67.6327 48.9816 67.9802 49.534 67.9802C49.6761 67.9802 49.8208 67.9572 49.9627 67.9086C50.6568 67.6719 51.0275 66.9174 50.7907 66.2234L47.2773 55.9224C53.901 52.3728 58.5581 46.8666 60.7782 39.9319C62.5479 34.4041 62.6325 28.2015 61.1372 22.3269C61.9565 21.8289 62.7158 21.2343 63.4018 20.5483C68.0946 15.8558 68.0946 8.22025 63.4019 3.52745ZM58.2494 39.1227C56.1659 45.6311 51.6926 50.7554 45.3045 53.957C42.0743 54.1021 39.257 52.7673 36.9278 49.9861C35.9887 48.8649 35.309 47.7107 34.8639 46.8371C35.6215 46.6001 36.4916 46.1779 37.2749 45.4277C38.7455 44.0191 39.4806 41.9152 39.4597 39.1745C39.4251 34.6697 35.2207 32.7773 30.7695 30.7735C26.1396 28.6894 20.8921 26.3274 17.9114 20.752C16.0597 17.2884 15.6238 13.9951 16.6107 11.1076C16.6148 11.0966 16.6187 11.0854 16.6225 11.0744C16.8389 10.4488 17.1211 9.84189 17.4717 9.25685C19.9111 5.18628 25.3289 2.65753 31.6107 2.65753C31.6234 2.65753 31.6361 2.6574 31.649 2.657C31.6903 2.65567 35.8749 2.55566 40.9695 4.1514C47.7491 6.27521 52.7433 10.2324 55.813 15.913C59.6924 23.093 60.6034 31.7694 58.2494 39.1227ZM60.3436 19.6731C59.7513 17.9469 59.0203 16.2632 58.1489 14.6508C55.9693 10.6175 52.8205 7.30597 48.8713 4.84668C52.5528 1.76025 58.0643 1.94486 61.5243 5.40502C65.1817 9.06241 65.1817 15.0135 61.5243 18.6709C61.1562 19.0392 60.7616 19.3737 60.3436 19.6731Z" fill="#FF7C7C"/>
<path d="M35.1386 62.1975L30.9788 54.9924L30.8381 50.0726C30.7204 45.9525 27.5336 42.5935 23.4253 42.2592C20.4044 42.013 17.5039 43.6883 16.2064 46.4273L16.1408 46.5657C14.4209 50.1961 15.6618 54.588 19.0271 56.7818L23.1681 59.4811L27.6919 67.3165C27.9378 67.7424 28.384 67.9805 28.8429 67.9804C29.068 67.9804 29.2964 67.923 29.5055 67.8023C30.1405 67.4357 30.3581 66.6237 29.9914 65.9886L25.9727 59.0279L27.5739 58.1034L29.175 57.1789L32.8388 63.5247C33.2052 64.1597 34.0173 64.3772 34.6525 64.0106C35.2877 63.6445 35.5053 62.8325 35.1386 62.1975ZM24.2015 56.985L20.4774 54.5574C18.2193 53.0855 17.3867 50.1385 18.5407 47.7024L18.6064 47.5641C19.3801 45.9309 21.048 44.8909 22.8363 44.8909C22.9605 44.8909 23.0852 44.896 23.2102 44.9062C25.9667 45.1304 28.105 47.3844 28.1839 50.1487L28.3115 54.612L24.2015 56.985Z" fill="#FF7C7C"/>
<path d="M37.1284 65.7337C36.8815 65.4867 36.5388 65.3447 36.1897 65.3447C35.8392 65.3447 35.498 65.4868 35.251 65.7337C35.0039 65.9806 34.862 66.3233 34.862 66.6724C34.862 67.0216 35.0041 67.3641 35.251 67.6112C35.4979 67.8581 35.8392 68.0002 36.1897 68.0002C36.5388 68.0002 36.8814 67.8581 37.1284 67.6112C37.3753 67.3643 37.5174 67.0216 37.5174 66.6724C37.5174 66.3233 37.3753 65.9808 37.1284 65.7337Z" fill="#FF7C7C"/>
<path d="M26.2477 7.78291C25.9594 7.10888 25.1793 6.79571 24.5048 7.08405C22.1632 8.08505 20.4744 9.77244 19.7494 11.8355C19.0229 13.9028 19.2957 16.2241 20.5383 18.5482C20.7775 18.9956 21.2361 19.2501 21.7103 19.2501C21.9216 19.2501 22.1359 19.1995 22.3351 19.093C22.9817 18.7472 23.2257 17.9428 22.88 17.296C21.9851 15.6222 21.7747 14.0811 22.2546 12.7156C22.7299 11.3631 23.8997 10.2301 25.5487 9.52541C26.2229 9.23747 26.5358 8.45733 26.2477 7.78291Z" fill="#FF7C7C"/>
<path d="M29.4863 6.11011L29.4119 6.11024C28.6788 6.11449 28.0876 6.71241 28.092 7.4458C28.0963 8.1764 28.6899 8.76569 29.4196 8.76569C29.4223 8.76569 29.4249 8.76569 29.4276 8.76569L29.4863 8.76556C30.2195 8.76556 30.814 8.17109 30.814 7.43783C30.814 6.70458 30.2195 6.11011 29.4863 6.11011Z" fill="#FF7C7C"/>
</g>
<defs>
<clipPath id="clip0">
<rect width="68" height="68" fill="white"/>
</clipPath>
</defs>
</svg>
