<svg width="68" height="68" viewBox="0 0 68 68" fill="none" xmlns="http://www.w3.org/2000/svg">
<path d="M67.1384 13.0127L64.4237 11.9675C60.4751 10.4472 56.9633 7.91948 54.2681 4.6576C51.8222 1.69761 48.2173 0 44.3777 0C40.8894 0 37.5073 1.44699 35.0983 3.97003L33.9894 5.13148L32.8804 3.97003C30.4716 1.44699 27.0894 0 23.6012 0C19.7616 0 16.1566 1.69761 13.7108 4.6576C11.0156 7.91948 7.50377 10.4472 3.55512 11.9675L0.840436 13.0127C-0.31397 13.4583 -0.250087 15.1712 0.942436 15.5254C0.970459 15.5336 0.999014 15.5407 1.0277 15.547C1.04019 15.5498 1.05254 15.553 1.06515 15.5554C1.09172 15.5606 1.11868 15.5643 1.14577 15.5678C1.16065 15.5697 1.17526 15.5723 1.19026 15.5737C1.21537 15.5761 1.24087 15.5769 1.26637 15.5778C1.28297 15.5785 1.29944 15.58 1.31617 15.5801C1.3167 15.5801 1.3171 15.5801 1.31763 15.5801C3.38459 15.5801 5.66432 17.4725 8.55046 19.8684C9.85282 20.9494 11.3289 22.1748 12.9648 23.365C13.5579 23.7967 14.3886 23.6657 14.8201 23.0725C15.2518 22.4793 15.1208 21.6487 14.5277 21.2171C12.9602 20.0767 11.5808 18.9316 10.2471 17.8245C8.71196 16.5502 7.327 15.4013 5.97988 14.5362C9.96611 13.8109 15.9562 13.2313 20.4556 15.032C26.7176 17.5384 31.497 17.8145 33.2986 17.8145C33.309 17.8145 33.3196 17.8145 33.3299 17.8145C35.1319 17.8145 39.9116 17.5383 46.1729 15.032C51.0851 13.0658 57.7743 13.9369 61.6926 14.7375C60.4415 15.5761 59.1509 16.6466 57.7321 17.8244C53.2367 21.5561 47.642 26.2003 38.5187 27.3966C37.7913 27.4919 37.2791 28.1588 37.3745 28.8861C37.4621 29.5548 38.033 30.0417 38.6896 30.0417C38.7471 30.0417 38.8054 30.0379 38.864 30.0302C48.7483 28.7342 54.9214 23.6098 59.4288 19.8682C62.3149 17.4723 64.5947 15.58 66.6616 15.58C67.3015 15.58 67.8504 15.1236 67.9674 14.4945C68.0839 13.8656 67.7357 13.2425 67.1384 13.0127ZM45.1857 12.5662C40.0334 14.6284 35.9457 15.0629 33.9972 15.1408C33.9891 15.1406 33.981 15.1406 33.9728 15.1406H32.6553C32.6478 15.1406 32.6405 15.1406 32.6331 15.1408C30.6838 15.0632 26.5956 14.6288 21.4423 12.5661C18.0373 11.2031 14.0145 11.0164 10.436 11.275C12.4144 9.88005 14.2087 8.22495 15.7583 6.3495C17.6978 4.00244 20.5564 2.65625 23.6012 2.65625C26.3673 2.65625 29.0493 3.80375 30.9594 5.8043L33.0289 7.9718C33.2795 8.23424 33.6265 8.38273 33.9894 8.38273C34.3522 8.38273 34.6994 8.23424 34.9499 7.9718L37.0193 5.8043C38.9297 3.80375 41.6116 2.65625 44.3777 2.65625C47.4224 2.65625 50.2809 4.00244 52.2204 6.3495C53.8228 8.28883 55.6865 9.99255 57.745 11.4164C53.8152 10.9868 49.0937 11.0019 45.1857 12.5662Z" fill="#A1A4DC"/>
<path d="M34.006 27.6858H33.9728C33.2394 27.6858 32.6499 28.2804 32.6499 29.0139C32.6499 29.7474 33.2498 30.342 33.9832 30.342H34.006C34.7394 30.342 35.3342 29.7474 35.3342 29.0139C35.3342 28.2804 34.7396 27.6858 34.006 27.6858Z" fill="#A1A4DC"/>
<path d="M31.5987 42.5133V36.6561C31.5987 35.5693 30.942 34.6341 30.005 34.2233V26.0167C30.005 24.5452 29.1994 23.1996 27.9024 22.5047L23.6524 20.2275C22.4057 19.5596 20.9371 19.5945 19.724 20.321C18.5106 21.0474 17.7862 22.3254 17.7862 23.7395V34.2233C16.8492 34.6341 16.1925 35.5693 16.1925 36.6561V42.5133C14.852 42.647 13.8019 43.7811 13.8019 45.1561V64.0155C13.8019 66.2125 15.5893 67.9999 17.7862 67.9999H30.005C32.202 67.9999 33.9894 66.2125 33.9894 64.0155V45.1561C33.9894 43.7811 32.9392 42.647 31.5987 42.5133ZM20.4424 23.7393C20.4425 23.0599 20.8942 22.7161 21.0884 22.5998C21.2828 22.4836 21.799 22.2478 22.3979 22.5686L26.6479 24.8458C27.0802 25.0774 27.3486 25.5261 27.3486 26.0164V33.9999H20.4424V23.7393ZM18.8487 36.6561H19.1144H28.6769H28.9425V42.4999H18.8487V36.6561ZM31.3331 64.0155C31.3331 64.7478 30.7373 65.3436 30.005 65.3436H27.6144V55.2499C27.6144 54.5164 27.0196 53.9218 26.2862 53.9218C25.5529 53.9218 24.9581 54.5164 24.9581 55.2499V65.3436H17.7862C17.0539 65.3436 16.4581 64.7478 16.4581 64.0155V45.1561H31.3331V64.0155Z" fill="#A1A4DC"/>
<path d="M27.2251 49.2641C26.9782 49.0171 26.6356 48.875 26.2863 48.875C25.937 48.875 25.5943 49.0171 25.3473 49.2641C25.1003 49.5112 24.9582 49.8538 24.9582 50.2031C24.9582 50.5524 25.1001 50.8951 25.3473 51.1421C25.5945 51.3891 25.937 51.5312 26.2863 51.5312C26.6356 51.5312 26.9782 51.3891 27.2251 51.1421C27.4722 50.8951 27.6144 50.5524 27.6144 50.2031C27.6144 49.8538 27.4723 49.5112 27.2251 49.2641Z" fill="#A1A4DC"/>
</svg>
