<svg width="44" height="44" viewBox="0 0 44 44" fill="none" xmlns="http://www.w3.org/2000/svg">
<g clip-path="url(#clip0)">
<path d="M43.9152 24.0324C43.5201 20.0587 41.7449 16.3126 38.9163 13.4839C36.499 11.0667 33.5403 9.51336 30.4271 8.82267V6.63914C31.6986 6.3228 32.6438 5.17182 32.6438 3.80376C32.6438 2.19258 31.333 0.881836 29.7219 0.881836H23.5343C21.9231 0.881836 20.6123 2.19258 20.6123 3.80376C20.6123 5.17173 21.5575 6.32271 22.829 6.63914V8.82877C19.7253 9.52238 16.7764 11.0736 14.366 13.484C13.8385 14.0115 13.3521 14.5648 12.9068 15.1399C12.8852 15.1383 12.8637 15.1367 12.8417 15.1367H6.71758C6.24303 15.1367 5.85819 15.5214 5.85819 15.9961C5.85819 16.4707 6.24303 16.8555 6.71758 16.8555H11.7374C11.1073 17.9104 10.5993 19.0182 10.2125 20.1586H0.859388C0.384834 20.1586 0 20.5434 0 21.018C0 21.4926 0.384834 21.8774 0.859388 21.8774H9.7269C9.47923 22.9646 9.33708 24.0711 9.30039 25.1806H5.50009C5.02553 25.1806 4.6407 25.5654 4.6407 26.04C4.6407 26.5146 5.02553 26.8994 5.50009 26.8994H9.3278C9.40033 28.0118 9.57917 29.1183 9.8644 30.2026H4.29694C3.82239 30.2026 3.43755 30.5874 3.43755 31.062C3.43755 31.5367 3.82239 31.9214 4.29694 31.9214H10.4129C11.2559 34.1516 12.5735 36.2419 14.366 38.0344C17.1973 40.8657 20.9473 42.6414 24.9251 43.0344C25.4928 43.0904 26.061 43.1182 26.6283 43.1182C29.9818 43.1182 33.2927 42.1477 36.102 40.3182C36.4998 40.0592 36.6123 39.5268 36.3532 39.1291C36.0942 38.7314 35.5618 38.6189 35.1641 38.8779C29.0146 42.8824 20.7788 42.0165 15.5813 36.8191C9.48292 30.7207 9.48292 20.7979 15.5813 14.6994C21.6796 8.60112 31.6024 8.60112 37.7009 14.6994C42.8915 19.8901 43.762 28.1189 39.7708 34.2654C39.5123 34.6634 39.6255 35.1958 40.0234 35.4542C40.4217 35.7127 40.9538 35.5995 41.2122 35.2014C43.3447 31.9173 44.3047 27.9508 43.9152 24.0324ZM22.3311 3.80384C22.3311 3.14039 22.8708 2.6007 23.5343 2.6007H29.7219C30.3853 2.6007 30.925 3.14039 30.925 3.80384C30.925 4.46729 30.3853 5.00699 29.7219 5.00699H29.5677H23.6884H23.5343C22.8708 5.00699 22.3311 4.4672 22.3311 3.80384ZM24.5477 8.53331V6.72576H28.7083V8.53022C27.3267 8.36591 25.929 8.36694 24.5477 8.53331Z" fill="#FF85A5"/>
<path d="M38.309 36.5664C38.0821 36.5664 37.8612 36.6584 37.7015 36.8182C37.5408 36.978 37.4496 37.1998 37.4496 37.4258C37.4496 37.6518 37.5408 37.8735 37.7015 38.0334C37.8612 38.1941 38.0822 38.2852 38.309 38.2852C38.535 38.2852 38.7558 38.1941 38.9165 38.0334C39.0764 37.8735 39.1683 37.6518 39.1683 37.4258C39.1683 37.1998 39.0765 36.978 38.9165 36.8182C38.7558 36.6584 38.5349 36.5664 38.309 36.5664Z" fill="#FF85A5"/>
<path d="M26.6411 12.4277C19.2901 12.4277 13.3095 18.4082 13.3095 25.7593C13.3095 33.1105 19.2901 39.0909 26.6411 39.0909C33.9922 39.0909 39.9727 33.1105 39.9727 25.7593C39.9727 18.4082 33.9922 12.4277 26.6411 12.4277ZM26.6411 37.3722C20.2378 37.3722 15.0283 32.1626 15.0283 25.7593C15.0283 19.356 20.2378 14.1465 26.6411 14.1465C33.0445 14.1465 38.254 19.356 38.254 25.7593C38.254 32.1626 33.0445 37.3722 26.6411 37.3722Z" fill="#FF85A5"/>
<path d="M32.0773 19.1072L27.8207 23.3636C27.4647 23.1876 27.0644 23.0882 26.6411 23.0882C26.2178 23.0882 25.8175 23.1876 25.4615 23.3636L23.5565 21.4586C23.2208 21.123 22.6768 21.123 22.3411 21.4586C22.0055 21.7942 22.0055 22.3384 22.3411 22.674L24.2461 24.579C24.07 24.9349 23.9707 25.3353 23.9707 25.7586C23.9707 27.2311 25.1686 28.429 26.6411 28.429C28.1137 28.429 29.3116 27.2311 29.3116 25.7586C29.3116 25.3353 29.2121 24.9349 29.0361 24.579L33.1677 20.4474L33.2926 20.3225C33.6282 19.9869 33.6282 19.4428 33.2926 19.1072C32.957 18.7716 32.413 18.7716 32.0773 19.1072ZM26.6411 26.7103C26.1164 26.7103 25.6894 26.2834 25.6894 25.7587C25.6894 25.2339 26.1164 24.807 26.6411 24.807C27.1659 24.807 27.5928 25.2339 27.5928 25.7587C27.5928 26.2834 27.1659 26.7103 26.6411 26.7103Z" fill="#FF85A5"/>
<path d="M35.8296 24.9102H35.0334C34.5588 24.9102 34.174 25.2949 34.174 25.7695C34.174 26.2442 34.5588 26.6289 35.0334 26.6289H35.8296C36.3041 26.6289 36.689 26.2442 36.689 25.7695C36.689 25.2949 36.3041 24.9102 35.8296 24.9102Z" fill="#FF85A5"/>
<path d="M18.2488 24.8896H17.4526C16.9781 24.8896 16.5933 25.2744 16.5933 25.749C16.5933 26.2237 16.9781 26.6084 17.4526 26.6084H18.2488C18.7233 26.6084 19.1081 26.2237 19.1081 25.749C19.1081 25.2744 18.7233 24.8896 18.2488 24.8896Z" fill="#FF85A5"/>
<path d="M26.6516 18.2268C27.1262 18.2268 27.511 17.842 27.511 17.3674V16.5713C27.511 16.0967 27.1262 15.7119 26.6516 15.7119C26.1771 15.7119 25.7922 16.0967 25.7922 16.5713V17.3674C25.7922 17.842 26.1771 18.2268 26.6516 18.2268Z" fill="#FF85A5"/>
<path d="M26.6306 33.292C26.1561 33.292 25.7713 33.6767 25.7713 34.1514V34.9475C25.7713 35.4221 26.1561 35.8069 26.6306 35.8069C27.1052 35.8069 27.49 35.4221 27.49 34.9475V34.1514C27.49 33.6767 27.1052 33.292 26.6306 33.292Z" fill="#FF85A5"/>
<path d="M0.859375 30.2021C0.633359 30.2021 0.411641 30.2941 0.251797 30.4539C0.0919531 30.6138 0 30.8355 0 31.0615C0 31.2884 0.0918672 31.5093 0.251797 31.6691C0.411727 31.8289 0.633359 31.9209 0.859375 31.9209C1.08539 31.9209 1.30711 31.8289 1.46687 31.6691C1.62671 31.5093 1.71875 31.2875 1.71875 31.0615C1.71875 30.8355 1.6268 30.6138 1.46687 30.4539C1.30711 30.2941 1.08539 30.2021 0.859375 30.2021Z" fill="#FF85A5"/>
</g>
<defs>
<clipPath id="clip0">
<rect width="44" height="44" fill="white"/>
</clipPath>
</defs>
</svg>
