<svg width="44" height="44" viewBox="0 0 44 44" fill="none" xmlns="http://www.w3.org/2000/svg">
<g clip-path="url(#clip0)">
<path d="M12.9291 26.8136C13.5715 26.4894 14.3426 26.7315 14.6845 27.3647L17.1113 31.8584C17.2983 32.2046 17.6966 32.3794 18.0781 32.2832C18.4596 32.1867 18.7268 31.8435 18.7268 31.45V24.8886C18.7268 24.414 18.342 24.0293 17.8674 24.0293C17.3927 24.0293 17.008 24.4141 17.008 24.8887V28.0503L16.1968 26.5481C15.4094 25.0904 13.6338 24.5327 12.1548 25.2792C10.8891 25.9178 10.2372 27.3263 10.5697 28.7045L12.143 35.2255C12.5107 36.7499 13.1663 38.1647 14.0915 39.4309L17.1736 43.6484C17.3419 43.8787 17.6032 44.0008 17.8682 44.0008C18.0441 44.0008 18.2216 43.947 18.3745 43.8352C18.7577 43.5552 18.8414 43.0175 18.5613 42.6343L15.4793 38.4167C14.6885 37.3346 14.1281 36.1253 13.8139 34.8225L12.2406 28.3013C12.0962 27.7027 12.3793 27.091 12.9291 26.8136Z" fill="#FF85A5"/>
<path d="M32.3319 23.1494C31.8248 23.1494 31.3474 23.2793 30.9311 23.5072C30.5094 22.4088 29.4442 21.6267 28.1991 21.6267C27.6621 21.6267 27.1588 21.7728 26.7258 22.0263C26.2629 21.0193 25.2453 20.3178 24.0663 20.3178C23.636 20.3178 23.2276 20.4119 22.8593 20.5794V16.4707C22.8593 14.8574 21.5469 13.5449 19.9336 13.5449C18.3203 13.5449 17.0078 14.8574 17.0078 16.4707V17.9603C17.0078 18.4349 17.3926 18.8197 17.8672 18.8197C18.3418 18.8197 18.7266 18.4349 18.7266 17.9603V16.4708C18.7266 15.8053 19.2681 15.2638 19.9336 15.2638C20.5991 15.2638 21.1406 15.8053 21.1406 16.4708V28.5972C21.1406 29.0717 21.5253 29.4565 22 29.4565C22.4746 29.4565 22.8593 29.0717 22.8593 28.5972V23.2435C22.8593 22.578 23.4007 22.0365 24.0663 22.0365C24.7319 22.0365 25.2733 22.578 25.2733 23.2435V28.5972C25.2733 29.0717 25.6581 29.4565 26.1327 29.4565C26.6073 29.4565 26.9921 29.0717 26.9921 28.5972V24.5524C26.9921 23.8868 27.5335 23.3453 28.1991 23.3453C28.8647 23.3453 29.4061 23.8868 29.4061 24.5524V28.5972C29.4061 29.0717 29.7908 29.4565 30.2654 29.4565C30.7401 29.4565 31.1248 29.0717 31.1248 28.5972V26.075C31.1248 25.4095 31.6663 24.868 32.3318 24.868C32.9973 24.868 33.5388 25.4095 33.5388 26.075V33.3263C33.5388 35.2585 33.2456 37.1732 32.6674 39.0169L31.4552 42.8826C31.3132 43.3355 31.5652 43.8178 32.0181 43.9597C32.1037 43.9866 32.1902 43.9993 32.2754 43.9993C32.641 43.9993 32.98 43.7641 33.0952 43.3968L34.3074 39.5312C34.9379 37.5208 35.2576 35.4331 35.2576 33.3263V26.075C35.2577 24.4619 33.9452 23.1494 32.3319 23.1494Z" fill="#FF85A5"/>
<path d="M43.928 4.55719C43.7565 4.02962 43.3088 3.65244 42.7597 3.57277L40.1276 3.19112L38.9498 0.806181C38.7043 0.30886 38.2072 0 37.6526 0C37.6526 0 37.6524 0 37.6523 0C37.0975 8.59377e-05 36.6004 0.30929 36.3551 0.806869L35.1786 3.19233L32.5466 3.57552C31.9976 3.65544 31.5501 4.03288 31.3789 4.56063C31.2077 5.08828 31.3482 5.6565 31.7455 6.04357L33.6506 7.89965L33.2017 10.5213C33.1081 11.0681 33.3288 11.6103 33.7776 11.9361C34.0311 12.1203 34.3277 12.2137 34.6263 12.2137C34.8563 12.2137 35.0876 12.1582 35.3012 12.0459L37.6551 10.8075L40.0097 12.0447C40.5008 12.3028 41.0847 12.2604 41.5333 11.9341C41.982 11.6079 42.2024 11.0657 42.1084 10.5189L41.6581 7.8975L43.5622 6.04047C43.9594 5.65307 44.0995 5.08467 43.928 4.55719ZM40.3558 6.76682C40.0147 7.09931 39.8594 7.57816 39.94 8.04755L40.3213 10.2667L38.328 9.21948C37.9063 8.99776 37.4029 8.99802 36.9814 9.21974L34.9887 10.2681L35.3688 8.04858C35.449 7.57919 35.2934 7.1006 34.9522 6.76819L33.3393 5.19691L35.5677 4.87258C36.0389 4.80392 36.4461 4.50795 36.6567 4.08075L37.6527 2.06139L38.6498 4.08015C38.8607 4.50726 39.2679 4.80297 39.7394 4.87146L41.9677 5.19467L40.3558 6.76682Z" fill="#FF85A5"/>
<path d="M28.2744 4.55719C28.1028 4.02962 27.6553 3.65235 27.1062 3.57277L24.474 3.19112L23.2962 0.806181C23.0506 0.30886 22.5537 0 21.999 0C21.9989 0 21.9988 0 21.9986 0C21.4439 8.59377e-05 20.9468 0.30929 20.7014 0.806869L19.525 3.19233L16.8929 3.57552C16.344 3.65544 15.8965 4.03288 15.7253 4.56063C15.554 5.08828 15.6945 5.6565 16.0918 6.04357L17.9969 7.89956L17.548 10.5212C17.4544 11.068 17.6751 11.6102 18.1239 11.9361C18.3774 12.1202 18.674 12.2136 18.9725 12.2136C19.2026 12.2136 19.4339 12.1581 19.6475 12.0458L22.0015 10.8075L24.3561 12.0446C24.8472 12.3027 25.431 12.2603 25.8797 11.934C26.3284 11.6078 26.5488 11.0656 26.4548 10.5188L26.0045 7.89741L27.9086 6.04039C28.3057 5.65307 28.4459 5.08476 28.2744 4.55719ZM24.7023 6.76682C24.3613 7.09922 24.2059 7.57798 24.2865 8.04755L24.6677 10.2667L22.6745 9.21948C22.2527 8.99784 21.7492 8.99793 21.3278 9.21974L19.335 10.2681L19.7151 8.04858C19.7954 7.5791 19.6398 7.10051 19.2986 6.76819L17.6858 5.19691L19.9141 4.87258C20.3853 4.80392 20.7924 4.50795 21.0032 4.08075L21.9992 2.0613L22.9962 4.08015C23.207 4.50717 23.6143 4.80297 24.0858 4.87146L26.3142 5.19467L24.7023 6.76682Z" fill="#FF85A5"/>
<path d="M12.6206 4.55719C12.449 4.02962 12.0014 3.65244 11.4523 3.57277L8.82015 3.19112L7.64246 0.806181C7.39685 0.30886 6.89987 0 6.34523 0C6.34514 0 6.34497 0 6.3448 0C5.79007 8.59377e-05 5.29301 0.30929 5.04766 0.806869L3.87117 3.19233L1.23916 3.57552C0.690188 3.65544 0.242797 4.03288 0.071523 4.56054C-0.0997508 5.0882 0.0405855 5.65642 0.437961 6.04357L2.34311 7.89965L1.89418 10.5213C1.80059 11.0681 2.02128 11.6103 2.47013 11.9362C2.72373 12.1203 3.02022 12.2138 3.31885 12.2137C3.5489 12.2137 3.78016 12.1582 3.9938 12.0459L6.34781 10.8076L8.70241 12.0447C9.19355 12.3027 9.77732 12.2603 10.226 11.9342C10.6747 11.6079 10.895 11.0655 10.8011 10.5188L10.3508 7.89741L12.2549 6.04039C12.6519 5.65307 12.7921 5.08476 12.6206 4.55719ZM9.04849 6.76673C8.7074 7.09914 8.55194 7.57798 8.63263 8.04755L9.01385 10.2667L7.0207 9.21948C6.599 8.99785 6.0955 8.99793 5.67406 9.21974L3.68116 10.2682L4.06118 8.04884C4.14162 7.57944 3.98598 7.10077 3.64473 6.76828L2.03202 5.19691L4.2603 4.87258C4.73149 4.80392 5.13867 4.50795 5.3493 4.08075L6.34532 2.0613L7.34237 4.08015C7.55317 4.50717 7.96043 4.80297 8.43197 4.87146L10.6604 5.19467L9.04849 6.76673Z" fill="#FF85A5"/>
<path d="M18.475 20.8934C18.3151 20.7335 18.0935 20.6416 17.8674 20.6416C17.6414 20.6416 17.4197 20.7335 17.2598 20.8934C17.1 21.0533 17.008 21.2749 17.008 21.501C17.008 21.727 17.1 21.9487 17.2598 22.1085C17.4197 22.2683 17.6414 22.3604 17.8674 22.3604C18.0934 22.3604 18.3151 22.2684 18.475 22.1085C18.6348 21.9487 18.7268 21.727 18.7268 21.501C18.7268 21.2748 18.6348 21.0532 18.475 20.8934Z" fill="#FF85A5"/>
</g>
<defs>
<clipPath id="clip0">
<rect width="44" height="44" fill="white"/>
</clipPath>
</defs>
</svg>
