<svg width="44" height="44" viewBox="0 0 44 44" fill="none" xmlns="http://www.w3.org/2000/svg">
<g clip-path="url(#clip0)">
<path d="M43.5109 27.333C42.5868 25.8361 40.6334 25.3542 38.968 26.2116L31.3289 30.1331C30.7018 29.456 29.8061 29.0311 28.8128 29.0311H23.6229C23.3136 29.0311 23.2332 29.0053 23.216 28.9973C23.1664 28.9746 23.0346 28.8501 22.9072 28.7297L22.8626 28.6876C18.7028 24.7727 15.1855 25.022 11.1841 26.6005C10.524 26.861 10.4986 26.8621 9.84827 26.8911L8.68863 26.8925V26.5697C8.68863 25.2259 7.59516 24.1328 6.25118 24.1328H2.43745C1.09347 24.1327 0 25.2259 0 26.5697V38.6231C0 39.9668 1.09347 41.06 2.43745 41.06H6.25127C7.59533 41.06 8.68871 39.9668 8.68871 38.6231V38.3017H10.803C11.0052 38.3017 11.0052 38.3017 11.2335 38.3658C11.3144 38.3885 13.9612 39.0978 13.9612 39.0978C14.0357 39.1177 14.1103 39.1273 14.1838 39.1273C14.5633 39.1273 14.9107 38.8738 15.0134 38.4898C15.136 38.0313 14.8638 37.5602 14.4054 37.4377C14.4054 37.4377 11.7733 36.7323 11.6977 36.7111C11.3437 36.6117 11.2228 36.5831 10.8029 36.5831H8.68863V28.6121H9.81415C9.82704 28.6121 9.84002 28.6119 9.85291 28.6113L9.92501 28.608C10.7038 28.5732 10.9215 28.5516 11.8148 28.1992C15.3942 26.787 18.1568 26.6192 21.6838 29.9383L21.7265 29.9787C22.3061 30.5266 22.6399 30.7497 23.6228 30.7497H28.8127C29.757 30.7497 30.5252 31.5187 30.5252 32.4638C30.5252 33.4075 29.757 34.1754 28.8124 34.1754L20.403 34.1778C19.9284 34.178 19.5438 34.5628 19.544 35.0373C19.5442 35.5119 19.9288 35.8965 20.4033 35.8964H20.4035L28.8127 35.894C30.7046 35.894 32.2438 34.3552 32.2438 32.4638C32.2438 32.1821 32.2089 31.9084 32.1447 31.6463L39.7538 27.7401C40.5037 27.3542 41.5328 27.4003 42.049 28.2365C42.5043 28.9725 42.2571 29.9462 41.4728 30.5025L29.314 39.1594C26.7762 40.8491 25.7034 40.5376 23.1164 39.7871C22.722 39.6726 22.3143 39.5543 21.8625 39.432C21.4045 39.3083 20.9326 39.579 20.8086 40.0371C20.6846 40.4952 20.9555 40.9671 21.4137 41.0911C21.8504 41.2093 22.2506 41.3254 22.6376 41.4376C23.891 41.8013 24.9441 42.1071 26.0418 42.107C27.2807 42.1069 28.5762 41.7173 30.2784 40.5821C30.2856 40.5772 30.2928 40.5723 30.2999 40.5672L42.4683 31.9035C44.0017 30.8158 44.4498 28.8507 43.5109 27.333ZM6.97013 38.6231C6.97013 39.0192 6.6477 39.3414 6.25127 39.3414H2.43745C2.0411 39.3414 1.71858 39.0192 1.71858 38.6231V26.5697C1.71858 26.1736 2.04102 25.8513 2.43745 25.8513H6.25127C6.6477 25.8513 6.97013 26.1736 6.97013 26.5697V38.6231Z" fill="#FF85A5"/>
<path d="M13.1142 14.8354L22.6073 23.9967C22.7738 24.1574 22.989 24.2377 23.2041 24.2377C23.4192 24.2377 23.6343 24.1573 23.8007 23.9968L27.2562 20.663L30.7125 23.9969C30.879 24.1574 31.094 24.2377 31.3091 24.2377C31.5242 24.2377 31.7392 24.1573 31.9057 23.9969L37.3902 18.7066C37.3977 18.6995 37.405 18.6921 37.4121 18.6847C39.2405 16.7889 39.2403 13.7066 37.4121 11.8142C36.8598 11.2417 36.1656 10.8609 35.3979 10.6972C35.8405 8.19064 35.0855 5.61956 33.3181 3.78961C32.067 2.49359 30.3517 1.82138 28.4857 1.89856C26.717 1.97117 25.0091 2.6976 23.6768 3.94378L23.5899 4.02499C23.4585 4.14806 23.3166 4.28092 23.2055 4.37777C23.0944 4.28092 22.9525 4.14806 22.8211 4.02499L22.7343 3.94387C21.4019 2.6976 19.694 1.97117 17.9253 1.89856C16.0598 1.82199 14.344 2.49359 13.0929 3.78961C10.1578 6.83042 10.158 11.7761 13.0932 14.8142C13.0998 14.8214 13.1069 14.8285 13.1142 14.8354ZM36.1756 13.0078C37.3653 14.2394 37.3685 16.2429 36.1851 17.4811L31.309 22.1844L26.4329 17.4811C25.2496 16.2429 25.2528 14.2394 26.443 13.0073C27.4744 11.9381 29.1501 12.2452 30.1099 13.1422L30.1611 13.1902C30.5189 13.5263 30.8279 13.8166 31.3081 13.8166C31.7873 13.8166 32.0822 13.5407 32.4555 13.1913L32.507 13.1432C33.468 12.2453 35.1435 11.9379 36.1756 13.0078ZM14.3291 4.9832C16.1607 3.08578 19.4045 3.18272 21.5603 5.19907L21.6462 5.27951C22.2343 5.8302 22.6229 6.19397 23.2053 6.19397C23.7877 6.19397 24.1762 5.8302 24.7644 5.27951L24.8505 5.1989C27.0062 3.18263 30.2499 3.08587 32.0816 4.98328C33.5329 6.48581 34.1094 8.63279 33.6456 10.6937C32.7932 10.863 31.9903 11.2738 31.3339 11.8873L31.309 11.9105L31.2844 11.8874C30.4506 11.1082 29.3812 10.6543 28.2734 10.6092C27.0915 10.5611 26.002 10.9889 25.2065 11.8136C23.3779 13.7066 23.3777 16.7889 25.2061 18.6846C25.2132 18.692 25.2205 18.6994 25.228 18.7066L26.0184 19.469L23.2042 22.1842L14.3188 13.6095C12.0295 11.2286 12.033 7.36203 14.3291 4.9832Z" fill="#FF85A5"/>
<path d="M17.912 38.4072C17.4373 38.4072 17.0526 38.792 17.0526 39.2665C17.0526 39.7411 17.4373 40.1258 17.912 40.1258H17.9144C18.3889 40.1258 18.7724 39.7411 18.7724 39.2665C18.7724 38.792 18.3865 38.4072 17.912 38.4072Z" fill="#FF85A5"/>
</g>
<defs>
<clipPath id="clip0">
<rect width="44" height="44" fill="white"/>
</clipPath>
</defs>
</svg>
