<svg width="44" height="44" viewBox="0 0 44 44" fill="none" xmlns="http://www.w3.org/2000/svg">
<path d="M13.0625 13.75C13.0623 13.9323 12.9898 14.107 12.8609 14.2359C12.732 14.3648 12.5573 14.4373 12.375 14.4375H11.6875V15.8125H12.375C12.9218 15.8119 13.4461 15.5944 13.8327 15.2077C14.2194 14.8211 14.4369 14.2968 14.4375 13.75V13.0625H13.0625V13.75Z" fill="#FF85A5"/>
<path d="M11 12.375C11.3797 12.375 11.6875 12.0672 11.6875 11.6875C11.6875 11.3078 11.3797 11 11 11C10.6203 11 10.3125 11.3078 10.3125 11.6875C10.3125 12.0672 10.6203 12.375 11 12.375Z" fill="#FF85A5"/>
<path d="M15.125 12.375C15.5047 12.375 15.8125 12.0672 15.8125 11.6875C15.8125 11.3078 15.5047 11 15.125 11C14.7453 11 14.4375 11.3078 14.4375 11.6875C14.4375 12.0672 14.7453 12.375 15.125 12.375Z" fill="#FF85A5"/>
<path d="M25.7437 23.2595L27.8062 24.6345C27.9191 24.7098 28.0518 24.75 28.1875 24.75H36.4375C36.5732 24.75 36.7059 24.7098 36.8188 24.6345L38.8813 23.2595C38.9755 23.1967 39.0527 23.1117 39.1061 23.0119C39.1596 22.9121 39.1875 22.8007 39.1875 22.6875V18.5625C39.1875 18.4722 39.1697 18.3828 39.1352 18.2994C39.1006 18.216 39.05 18.1402 38.9861 18.0764C38.9223 18.0125 38.8465 17.9619 38.7631 17.9273C38.6797 17.8928 38.5903 17.875 38.5 17.875H26.125C26.0347 17.875 25.9453 17.8928 25.8619 17.9273C25.7785 17.9619 25.7027 18.0125 25.6389 18.0764C25.575 18.1402 25.5244 18.216 25.4898 18.2994C25.4553 18.3828 25.4375 18.4722 25.4375 18.5625V22.6875C25.4375 22.8007 25.4654 22.9121 25.5189 23.0119C25.5723 23.1117 25.6495 23.1967 25.7437 23.2595ZM26.8125 19.25H37.8125V22.3196L36.2293 23.375H28.3957L26.8125 22.3196V19.25Z" fill="#FF85A5"/>
<path d="M26.125 39.875H38.5C38.5903 39.875 38.6797 39.8572 38.7631 39.8227C38.8465 39.7881 38.9223 39.7375 38.9861 39.6736C39.05 39.6098 39.1006 39.534 39.1352 39.4506C39.1697 39.3672 39.1875 39.2778 39.1875 39.1875V26.8125C39.1875 26.7222 39.1697 26.6328 39.1352 26.5494C39.1006 26.466 39.05 26.3902 38.9861 26.3264C38.9223 26.2625 38.8465 26.2119 38.7631 26.1773C38.6797 26.1428 38.5903 26.125 38.5 26.125H26.125C26.0347 26.125 25.9453 26.1428 25.8619 26.1773C25.7785 26.2119 25.7027 26.2625 25.6389 26.3264C25.575 26.3902 25.5244 26.466 25.4898 26.5494C25.4553 26.6328 25.4375 26.7222 25.4375 26.8125V39.1875C25.4375 39.2778 25.4553 39.3672 25.4898 39.4506C25.5244 39.534 25.575 39.6098 25.6389 39.6736C25.7027 39.7375 25.7785 39.7881 25.8619 39.8227C25.9453 39.8572 26.0347 39.875 26.125 39.875ZM33.6875 34.375H30.9375V31.625H33.6875V34.375ZM29.5625 34.375H26.8125V31.625H29.5625V34.375ZM26.8125 35.75H29.5625V38.5H26.8125V35.75ZM30.9375 35.75H33.6875V38.5H30.9375V35.75ZM37.8125 38.5H35.0625V31.625H37.8125V38.5ZM37.8125 30.25H35.0625V27.5H37.8125V30.25ZM33.6875 30.25H30.9375V27.5H33.6875V30.25ZM26.8125 27.5H29.5625V30.25H26.8125V27.5Z" fill="#FF85A5"/>
<path d="M36.4375 20.625H35.0625V22H36.4375V20.625Z" fill="#FF85A5"/>
<path d="M33.6875 20.625H32.3125V22H33.6875V20.625Z" fill="#FF85A5"/>
<path d="M1.7214 31.5344L2.68277 32.0838L1.38105 41.8467C1.3681 41.9438 1.37605 42.0425 1.40437 42.1363C1.43268 42.23 1.48072 42.3167 1.54524 42.3904C1.60977 42.4641 1.6893 42.5232 1.77851 42.5636C1.86772 42.6041 1.96455 42.625 2.06251 42.625H4.81251C4.96583 42.625 5.11475 42.5737 5.2356 42.4794C5.35645 42.385 5.44229 42.253 5.47949 42.1043L7.53565 33.8796L7.56251 33.799V36.3949L6.88034 41.8522C6.86824 41.949 6.87685 42.0472 6.9056 42.1403C6.93435 42.2335 6.98259 42.3194 7.0471 42.3925C7.11161 42.4656 7.19093 42.5241 7.27979 42.5642C7.36866 42.6043 7.46502 42.625 7.56251 42.625H18.5625C18.66 42.625 18.7564 42.6043 18.8452 42.5642C18.9341 42.5241 19.0134 42.4656 19.0779 42.3925C19.1424 42.3194 19.1907 42.2335 19.2194 42.1403C19.2482 42.0472 19.2568 41.949 19.2447 41.8522L18.5625 36.3949V33.799L18.5894 33.8796L20.6455 42.1043C20.6827 42.253 20.7686 42.385 20.8894 42.4794C21.0103 42.5737 21.1592 42.625 21.3125 42.625H38.5C39.4114 42.624 40.2851 42.2615 40.9296 41.617C41.574 40.9726 41.9365 40.0989 41.9375 39.1875V18.5625C41.9365 17.6511 41.574 16.7774 40.9296 16.133C40.2851 15.4885 39.4114 15.126 38.5 15.125H26.125C25.2136 15.126 24.3399 15.4885 23.6955 16.133C23.051 16.7774 22.6885 17.6511 22.6875 18.5625V24.6385L22.3249 23.5507C22.1308 22.9635 21.7809 22.4401 21.3125 22.0362V9.625C21.3125 7.43696 20.4433 5.33854 18.8961 3.79137C17.349 2.24419 15.2505 1.375 13.0625 1.375C10.8745 1.375 8.77605 2.24419 7.22888 3.79137C5.6817 5.33854 4.81251 7.43696 4.81251 9.625V22.0362C4.34416 22.4401 3.99424 22.9635 3.8001 23.5507L1.4103 30.7201C1.36003 30.8709 1.36355 31.0344 1.42028 31.1829C1.477 31.3313 1.58341 31.4556 1.7214 31.5344ZM4.27573 41.25H2.84778L3.97171 32.8203L6.08171 34.026L4.27573 41.25ZM8.34127 41.25L8.8569 37.125H17.2681L17.7837 41.25H8.34127ZM20.0433 34.026L22.1533 32.8203L22.6875 36.8268V39.1875C22.6867 39.9317 22.9288 40.6558 23.3769 41.25H21.8493L20.0433 34.026ZM24.0625 18.5625C24.0631 18.0157 24.2806 17.4914 24.6673 17.1048C25.0539 16.7181 25.5782 16.5006 26.125 16.5H38.5C39.0468 16.5006 39.5711 16.7181 39.9577 17.1048C40.3444 17.4914 40.5619 18.0157 40.5625 18.5625V39.1875C40.5619 39.7343 40.3444 40.2586 39.9577 40.6452C39.5711 41.0319 39.0468 41.2494 38.5 41.25H26.125C25.5782 41.2494 25.0539 41.0319 24.6673 40.6452C24.2806 40.2586 24.0631 39.7343 24.0625 39.1875V18.5625ZM22.6875 28.9865V30.9314L19.637 32.6745L19.3773 31.8954C19.9482 30.7259 20.0881 29.3924 19.7724 28.1298L19.2295 25.9582L17.8955 26.2918L18.4384 28.4634C18.5789 29.0251 18.6004 29.6099 18.5015 30.1804C18.4027 30.7509 18.1858 31.2944 17.8646 31.7762L17.303 32.6187C17.2277 32.7316 17.1875 32.8643 17.1875 33V35.75H13.75V24.75L15.4 25.9875C15.4892 26.0544 15.5933 26.0986 15.7033 26.1163C15.8134 26.134 15.9261 26.1247 16.0317 26.0891C16.1374 26.0536 16.2328 25.9929 16.3098 25.9123C16.3867 25.8317 16.443 25.7335 16.4736 25.6264L17.621 21.6104L19.9862 22.793C20.2289 22.9135 20.4453 23.081 20.6228 23.2857C20.8003 23.4904 20.9355 23.7283 21.0205 23.9855L22.6875 28.9865ZM16.0022 20.801L16.3697 20.9847L15.4259 24.2882L14.0425 23.2506L16.0022 20.801ZM13.0625 17.875C11.9689 17.8738 10.9204 17.4388 10.1471 16.6654C9.37374 15.8921 8.93874 14.8436 8.93751 13.75V9.81542L10.3316 7.49205C10.8605 8.15973 11.534 8.69862 12.3015 9.0681C13.069 9.43758 13.9103 9.628 14.7621 9.625H15.125C15.6718 9.62561 16.1961 9.84311 16.5827 10.2298C16.9694 10.6164 17.1869 11.1407 17.1875 11.6875V13.75C17.1863 14.8436 16.7513 15.8921 15.978 16.6654C15.2046 17.4388 14.1561 17.8738 13.0625 17.875ZM10.1228 20.801L12.0825 23.2506L10.6991 24.2882L9.75531 20.9847L10.1228 20.801ZM11.083 19.8001L11.357 18.978C12.4651 19.3407 13.6599 19.3407 14.768 18.978L15.042 19.8001L13.0625 22.2745L11.083 19.8001ZM13.0625 2.75C14.8852 2.75206 16.6327 3.47705 17.9216 4.76591C19.2105 6.05478 19.9355 7.80227 19.9375 9.625V21.2314L16.3747 19.4499L16.0193 18.3839C16.7984 17.8873 17.4397 17.2025 17.8842 16.3926C18.3287 15.5827 18.562 14.6738 18.5625 13.75V11.6875C18.5615 10.7761 18.199 9.90239 17.5546 9.25796C16.9101 8.61352 16.0364 8.25103 15.125 8.25H14.7621C13.9653 8.25271 13.1837 8.03211 12.5059 7.61322C11.8282 7.19433 11.2813 6.59391 10.9274 5.88005C10.8723 5.76985 10.7886 5.67649 10.6851 5.60972C10.5816 5.54295 10.462 5.50523 10.3389 5.5005C10.2158 5.49578 10.0937 5.52422 9.98532 5.58285C9.87697 5.64149 9.78637 5.72816 9.72299 5.83381L7.66049 9.27131C7.59637 9.37814 7.5625 9.5004 7.56251 9.625V13.75C7.56305 14.6738 7.79633 15.5827 8.24082 16.3926C8.6853 17.2025 9.32666 17.8873 10.1057 18.3839L9.75035 19.4499L6.18751 21.2314V9.625C6.18956 7.80227 6.91455 6.05478 8.20342 4.76591C9.49229 3.47705 11.2398 2.75206 13.0625 2.75ZM5.10452 23.9855C5.18951 23.7283 5.32468 23.4904 5.50221 23.2857C5.67975 23.081 5.89611 22.9135 6.13879 22.793L8.50402 21.6104L9.65145 25.6264C9.68207 25.7335 9.73829 25.8317 9.81526 25.9123C9.89223 25.9929 9.98765 26.0536 10.0933 26.0891C10.1989 26.1247 10.3116 26.134 10.4217 26.1163C10.5317 26.0986 10.6358 26.0544 10.725 25.9875L12.375 24.75V35.75H8.93751V33C8.9375 32.8643 8.89732 32.7316 8.82203 32.6187L8.26037 31.7762C7.93922 31.2944 7.72228 30.7509 7.62347 30.1804C7.52466 29.6099 7.54616 29.0251 7.68659 28.4634L8.22949 26.2918L6.89553 25.9582L6.35263 28.1298C6.0369 29.3924 6.1768 30.7259 6.74768 31.8954L6.488 32.6745L2.89297 30.6202L5.10452 23.9855Z" fill="#FF85A5"/>
</svg>
