<svg width="44" height="44" viewBox="0 0 44 44" fill="none" xmlns="http://www.w3.org/2000/svg">
<path d="M20.9645 24.2391H22.0139C22.37 24.2391 22.6584 23.9507 22.6584 23.5946C22.6584 23.2384 22.37 22.95 22.0139 22.95H21.1202V21.3867C21.1202 21.0305 20.8315 20.7422 20.4757 20.7422C20.1195 20.7422 19.8312 21.0305 19.8312 21.3867V23.1112C19.8312 23.7332 20.3398 24.2391 20.9645 24.2391Z" fill="#FF85A5"/>
<path d="M18.664 19.4009C18.4133 19.1488 18.005 19.1474 17.7526 19.3982C16.9033 20.2421 15.5216 20.2421 14.6726 19.3982C14.4202 19.1474 14.012 19.1488 13.7612 19.4009C13.5101 19.6536 13.5114 20.0615 13.7639 20.3126C14.439 20.9837 15.3255 21.319 16.2124 21.319C17.0993 21.319 17.9862 20.9833 18.6613 20.3126C18.9138 20.0615 18.9151 19.6536 18.664 19.4009Z" fill="#FF85A5"/>
<path d="M26.2772 21.319C27.1638 21.319 28.0511 20.9836 28.7262 20.3126C28.9786 20.0615 28.9796 19.6536 28.7288 19.4012C28.4781 19.1487 28.0699 19.1474 27.8174 19.3981C26.9681 20.2424 25.5864 20.2424 24.7371 19.3981C24.4846 19.1474 24.0764 19.1487 23.8253 19.4012C23.5746 19.6536 23.5759 20.0615 23.8283 20.3126C24.5034 20.9836 25.39 21.319 26.2772 21.319Z" fill="#FF85A5"/>
<path d="M17.8304 25.6711C17.5793 25.9235 17.5807 26.3317 17.8331 26.5825C18.768 27.5117 19.9967 27.9759 21.228 27.9759C22.4681 27.9759 23.7101 27.5053 24.6568 26.5647C24.9092 26.3136 24.9103 25.9054 24.6595 25.6529C24.4087 25.4005 24.0005 25.3995 23.7481 25.6503C22.3627 27.0273 20.1169 27.0353 18.7418 25.6684C18.4894 25.4173 18.0812 25.4186 17.8304 25.6711Z" fill="#FF85A5"/>
<path d="M35.6975 15.5445C36.8026 15.9836 37.0547 16.2354 37.4935 17.3402C37.6298 17.6836 37.9564 17.9055 38.3257 17.9055C38.6949 17.9055 39.0212 17.6836 39.1575 17.3405C39.5969 16.2354 39.8487 15.9836 40.9535 15.5445C41.2969 15.4082 41.5185 15.0816 41.5185 14.7123C41.5185 14.3431 41.2969 14.0164 40.9538 13.8801C39.8487 13.4411 39.5969 13.1893 39.1575 12.0832C39.0209 11.7408 38.6943 11.5195 38.3257 11.5195C37.9567 11.5195 37.6301 11.7408 37.4938 12.0838C37.0547 13.1893 36.8026 13.4411 35.6978 13.8801C35.3548 14.0164 35.1329 14.3431 35.1329 14.7123C35.1329 15.0819 35.3548 15.4082 35.6975 15.5445ZM38.3257 13.3601C38.6647 13.9832 39.0548 14.3733 39.6782 14.7123C39.0548 15.0514 38.6647 15.4415 38.3257 16.0645C37.9866 15.4415 37.5969 15.0517 36.9735 14.7123C37.5969 14.3733 37.9866 13.9832 38.3257 13.3601Z" fill="#FF85A5"/>
<path d="M2.702 15.5699C3.80711 16.0093 4.05922 16.2611 4.49797 17.3659C4.63393 17.7093 4.96056 17.9309 5.33016 17.9309C5.69909 17.9309 6.02572 17.7096 6.16201 17.3666C6.6011 16.2611 6.85287 16.0093 7.95832 15.5699C8.3014 15.4336 8.52296 15.1073 8.52296 14.7381C8.52296 14.3688 8.3014 14.0422 7.95832 13.9062C6.85287 13.4668 6.6011 13.215 6.16201 12.1096C6.02572 11.7665 5.69909 11.5449 5.33016 11.5449C4.96056 11.5449 4.63393 11.7668 4.4983 12.1096C4.05922 13.215 3.80711 13.4668 2.70166 13.9062C2.35892 14.0425 2.13736 14.3691 2.13736 14.7381C2.13736 15.107 2.35892 15.4336 2.702 15.5699ZM5.33016 13.3859C5.66921 14.0089 6.05929 14.399 6.68234 14.7381C6.05929 15.0771 5.66921 15.4672 5.33016 16.0902C4.99111 15.4672 4.60103 15.0771 3.97798 14.7381C4.60103 14.399 4.99111 14.0089 5.33016 13.3859Z" fill="#FF85A5"/>
<path d="M6.83982 5.74505C7.70323 6.08813 7.88484 6.26974 8.22792 7.13315C8.35716 7.4581 8.66634 7.66825 9.01614 7.66825C9.3656 7.66825 9.67477 7.45844 9.80368 7.13349C10.1471 6.26974 10.3287 6.08813 11.1921 5.74505C11.5171 5.61614 11.7269 5.30697 11.7269 4.95717C11.7269 4.60805 11.5174 4.29887 11.1921 4.16929C10.3287 3.82588 10.1471 3.64427 9.80401 2.78119C9.67477 2.45624 9.3656 2.24609 9.01614 2.24609C8.66634 2.24609 8.35716 2.4559 8.22826 2.78086C7.88518 3.64427 7.70323 3.82588 6.83881 4.16963C6.51453 4.29887 6.30505 4.60805 6.30505 4.95717C6.30505 5.30697 6.5152 5.61614 6.83982 5.74505ZM9.0158 4.10518C9.24206 4.46974 9.50357 4.73125 9.8678 4.95717C9.50357 5.18309 9.24206 5.4446 9.0158 5.80883C8.78988 5.4446 8.5287 5.18309 8.16414 4.95717C8.5287 4.73091 8.78988 4.46974 9.0158 4.10518Z" fill="#FF85A5"/>
<path d="M43.6719 38.2535L43.2517 37.8359C42.9992 37.5851 42.591 37.5861 42.3402 37.8386C42.0891 38.091 42.0905 38.4992 42.3429 38.75L42.6373 39.0427L39.7504 41.9126L36.8516 39.0313C36.6885 38.8688 36.4508 38.8064 36.2282 38.8665C35.9308 38.9474 35.6237 38.9887 35.3151 38.9887C34.4 38.9887 33.5397 38.6349 32.8934 37.9923L26.7116 31.8471C26.6619 31.7978 26.6357 31.735 26.6357 31.6658C26.6357 31.5967 26.6619 31.5339 26.7116 31.4846C26.813 31.3838 26.9862 31.3838 27.0869 31.4842L30.5906 34.9671C30.842 35.2168 31.2479 35.2168 31.4993 34.9667L32.0243 34.4444C32.1462 34.3235 32.2143 34.159 32.2143 33.9875C32.2143 33.816 32.1462 33.6515 32.0243 33.5303L27.3538 28.8876C27.3041 28.8379 27.2776 28.7752 27.2776 28.706C27.2776 28.6368 27.3041 28.5741 27.3535 28.5247C27.4548 28.424 27.6277 28.4237 27.7291 28.5251L32.4003 33.1677C32.6514 33.4178 33.0576 33.4175 33.309 33.1677L33.8344 32.6454C33.9559 32.5245 34.0244 32.3597 34.0244 32.1885C34.0244 32.0166 33.9559 31.8521 33.8344 31.7313L29.1635 27.0883C29.1138 27.0389 29.0877 26.9762 29.0877 26.907C29.0877 26.8379 29.1138 26.7751 29.1635 26.7257C29.2649 26.6247 29.4375 26.625 29.5392 26.7257L34.21 31.3687C34.4615 31.6185 34.8673 31.6188 35.1188 31.3687L35.6441 30.8464C35.766 30.7255 35.8345 30.5611 35.8345 30.3892C35.8345 30.2176 35.766 30.0531 35.6445 29.9323L32.1411 26.4501C32.0915 26.4008 32.0653 26.338 32.0653 26.2685C32.0653 26.1994 32.0918 26.1366 32.1411 26.0876C32.2425 25.9865 32.4154 25.9865 32.5171 26.0876L37.0091 30.553C37.1937 30.7366 37.4706 30.791 37.711 30.691C37.9514 30.5909 38.1078 30.3563 38.1078 30.0958V28.4834C38.1081 28.2129 38.3314 27.9923 38.606 27.9923C38.8802 27.9923 39.1038 28.2125 39.1038 28.4834V32.5272C39.1038 32.6467 39.1367 32.7635 39.1995 32.8653C39.6889 33.6605 39.8266 34.6351 39.5771 35.5391C39.5154 35.7633 39.5791 36.0033 39.7443 36.1675L40.1941 36.6146C40.4466 36.8657 40.8545 36.8644 41.1056 36.612C41.3563 36.3595 41.3553 35.9513 41.1029 35.7006L40.9072 35.5058C41.1096 34.4299 40.9283 33.3077 40.3929 32.3523V28.4834C40.3929 27.5019 39.5912 26.7032 38.6056 26.7032C37.6207 26.7036 36.8191 27.5019 36.8187 28.4834V28.5462L34.7623 26.5018C34.7975 26.2772 34.8163 26.0476 34.8163 25.8133C34.8163 25.0385 34.6179 24.3094 34.2688 23.6729C34.4853 23.3154 34.6105 22.8978 34.6105 22.4513V20.3435C34.6105 19.423 34.0798 18.6231 33.305 18.2256V15.7109C33.305 12.5577 32.0663 9.88827 29.7225 7.99092C29.1353 7.51557 28.4851 7.09864 27.7838 6.7428C27.4535 3.44359 24.6467 0.858398 21.2445 0.858398C17.8419 0.858398 15.0355 3.44359 14.7048 6.7428C14.0035 7.09864 13.3533 7.51557 12.7665 7.99092C10.4227 9.88827 9.18362 12.5577 9.18362 15.7109V18.2256C8.40917 18.6234 7.87843 19.4234 7.87843 20.3435V22.4513C7.87843 23.1257 8.16411 23.7344 8.62066 24.1687L8.39473 27.5945C8.18123 27.6328 7.98485 27.7335 7.82875 27.8889L6.96702 28.7456C6.76325 28.948 6.65113 29.2179 6.65113 29.5056C6.65113 29.7597 6.73908 29.9998 6.89988 30.1921L0.413577 37.326C0.146699 37.5976 0 37.9564 0 38.3378C0 38.7252 0.151734 39.0894 0.427004 39.363C0.700932 39.6356 1.0655 39.7856 1.45255 39.7856C1.8339 39.7856 2.19243 39.6403 2.46535 39.3757L9.64688 32.9233C9.84091 33.0878 10.0843 33.1785 10.3424 33.1785C10.6295 33.1785 10.899 33.0674 11.1014 32.8659L11.9635 32.0092C12.1199 31.8535 12.2217 31.6578 12.2609 31.4453L15.9875 31.2022C16.0949 31.1952 16.198 31.1727 16.295 31.1378C16.8469 31.3939 17.4286 31.5957 18.0336 31.7387V32.9361H13.7393C9.88455 32.9361 6.74848 36.0554 6.74848 39.8894V42.1791C6.74848 42.782 7.23927 43.2728 7.84251 43.2728H34.6464C35.25 43.2728 35.7408 42.782 35.7408 42.1791V40.2579C35.8929 40.2445 36.0446 40.224 36.1947 40.1958L38.9645 42.9489C39.1746 43.1577 39.4539 43.2728 39.7504 43.2728C40.0471 43.2728 40.3261 43.1577 40.5362 42.9489L43.6716 39.832C43.8804 39.6245 43.9999 39.3368 43.9999 39.0427C44.0003 38.749 43.8804 38.461 43.6719 38.2535ZM24.4561 31.739C24.7636 31.6668 25.065 31.5789 25.3594 31.4762C25.352 31.5386 25.3467 31.6017 25.3467 31.6658C25.3467 32.0797 25.5088 32.4688 25.8029 32.7615L25.9788 32.9361H24.4561V31.739ZM33.4259 25.1728C33.1328 24.8814 32.7434 24.721 32.3291 24.721C31.9152 24.721 31.5258 24.8814 31.2324 25.1731C30.9682 25.436 30.8108 25.7764 30.7816 26.1426L30.4479 25.8113C30.1548 25.5196 29.7654 25.3591 29.3515 25.3591C28.9376 25.3591 28.5482 25.5199 28.2548 25.8113C27.9607 26.1037 27.7989 26.4928 27.7989 26.907C27.7989 27.0007 27.8073 27.0933 27.8234 27.184C27.7315 27.1672 27.6371 27.1588 27.5415 27.1588C27.4924 27.1588 27.4438 27.1611 27.3954 27.1658C27.2011 26.7549 27.0926 26.2964 27.0926 25.8133C27.0926 24.0516 28.5358 22.6188 30.3099 22.6188C31.879 22.6188 33.1885 23.7397 33.4705 25.2175L33.4259 25.1728ZM33.3218 22.451C33.3218 22.4607 33.3208 22.4705 33.3208 22.4802C32.7917 22.0069 32.1505 21.6557 31.4419 21.4728V19.2461H32.1952C32.8166 19.2461 33.3218 19.7382 33.3218 20.3432V22.451ZM21.2448 2.14713C23.7206 2.14713 25.8039 3.84777 26.3736 6.13486C24.8173 5.57324 23.0764 5.27682 21.2448 5.27682C19.4133 5.27682 17.6723 5.57324 16.1157 6.13486C16.6857 3.84777 18.7691 2.14713 21.2448 2.14713ZM9.16784 20.3432C9.16784 19.7382 9.6734 19.2461 10.2944 19.2461H11.0477V22.6648C10.5291 22.6772 10.0051 22.7488 9.48742 22.8787C9.41894 22.8958 9.35348 22.9196 9.29138 22.9482C9.21282 22.7988 9.16784 22.6303 9.16784 22.451V20.3432ZM1.59321 38.4261C1.58515 38.4334 1.57743 38.4408 1.56971 38.4485C1.52976 38.4882 1.48411 38.4966 1.45255 38.4966C1.42133 38.4966 1.37568 38.4882 1.33573 38.4485C1.29713 38.4106 1.28907 38.3673 1.28907 38.3378C1.28907 38.3082 1.29713 38.2649 1.33573 38.2267C1.34345 38.2193 1.35084 38.2112 1.35822 38.2032L7.8123 31.1052L8.72841 32.0156L1.59321 38.4261ZM10.3424 31.8028L8.03117 29.5053L8.58809 28.9517L10.8994 31.2492L10.3424 31.8028ZM15.7834 29.9236L11.6647 30.1921L11.5996 30.1273L13.9085 28.7631C14.215 28.5821 14.3167 28.187 14.1355 27.8805C13.9545 27.574 13.5594 27.4723 13.2529 27.6533L10.6677 29.1807L12.2005 26.6173C12.3831 26.3115 12.2838 25.916 11.9779 25.7331C11.6725 25.5505 11.277 25.6502 11.0941 25.9557L9.71804 28.2572L9.64788 28.187L9.91745 24.1009C10.3492 24.0016 10.7839 23.9512 11.2116 23.9512C12.5258 23.9512 13.7262 24.4256 14.5923 25.2863C15.7518 26.4387 16.1929 28.1649 15.7834 29.9236ZM15.5011 24.3722C14.6487 23.5249 13.551 22.9713 12.3368 22.7598V16.7824H14.8673C15.2234 16.7824 15.5118 16.4941 15.5118 16.1379C15.5118 15.7821 15.2234 15.4934 14.8673 15.4934H12.2227C11.5748 15.4934 11.0477 16.0191 11.0477 16.6653V17.957H10.473V15.7106C10.473 12.9599 11.5466 10.6369 13.5779 8.9923C15.5108 7.42762 18.2336 6.56555 21.2448 6.56555C24.256 6.56555 26.9788 7.42762 28.9118 8.9923C30.9427 10.6369 32.0163 12.9599 32.0163 15.7106V17.957H31.4419V16.6653C31.4419 16.0191 30.9149 15.4934 30.267 15.4934H27.5018C26.3457 15.4934 25.2436 14.8837 24.6263 13.9032C24.4104 13.5588 24.0385 13.3536 23.6309 13.3536C23.2237 13.3536 22.8515 13.5588 22.6356 13.9025C22.0183 14.8837 20.9165 15.4937 19.76 15.4937H17.8751C17.5193 15.4937 17.2306 15.7821 17.2306 16.1382C17.2306 16.4941 17.5193 16.7828 17.8751 16.7828H19.76C21.2972 16.7828 22.7642 16.0026 23.6309 14.735C24.4977 16.0023 25.9647 16.7828 27.5018 16.7828H30.1528V21.3335C27.7405 21.4167 25.8036 23.3936 25.8036 25.8133C25.8036 26.5304 25.9748 27.2081 26.2772 27.81C26.0909 28.0699 25.9889 28.3797 25.9889 28.706C25.9889 29.0444 26.099 29.3653 26.2994 29.6315C25.1422 30.3059 23.7954 30.6937 22.358 30.6937H20.1323C19.0457 30.6937 18.0107 30.4718 17.0704 30.0726C17.525 27.9242 16.9489 25.8113 15.5011 24.3722ZM18.0678 34.2252C18.76 34.2252 19.3226 33.6639 19.3226 32.974V31.9465C19.5895 31.97 19.8594 31.9827 20.1323 31.9827H22.358C22.6306 31.9827 22.9005 31.9703 23.167 31.9465V32.974C23.167 33.6639 23.73 34.2252 24.4222 34.2252H24.5749L21.2448 39.3237L17.9147 34.2252H18.0678ZM8.03755 41.9838V39.8894C8.03755 36.766 10.5952 34.2252 13.7393 34.2252H13.8088L18.8761 41.9838H8.03755ZM23.6131 41.9838L25.0543 39.7772C25.249 39.4791 25.1651 39.08 24.8673 38.8853C24.5692 38.6906 24.1697 38.7745 23.975 39.0723L22.504 41.3248C22.2757 41.6746 21.9118 41.9129 21.5006 41.9838H20.9887C20.5778 41.9129 20.2139 41.6746 19.9856 41.3248L15.3483 34.2252H16.3749L20.705 40.8551C20.8242 41.0371 21.0269 41.1469 21.2448 41.1469C21.4623 41.1469 21.6654 41.0371 21.7843 40.8551L26.1144 34.2252H27.141L25.6028 36.5801C25.4081 36.8782 25.492 37.2776 25.7901 37.4723C26.0879 37.6671 26.4874 37.5831 26.6821 37.285L28.1276 35.0721L31.9847 38.9064C32.6672 39.5849 33.5225 40.0283 34.4517 40.1985V41.9838H23.6131Z" fill="#FF85A5"/>
</svg>
