<svg width="44" height="44" viewBox="0 0 44 44" fill="none" xmlns="http://www.w3.org/2000/svg">
<g clip-path="url(#clip0)">
<path d="M43.9485 19.7032C43.9485 16.6011 40.1332 13.9226 34.232 12.3589L31.4579 2.39232C31.0477 0.922183 29.5847 0.00668512 28.083 0.279985L22.518 1.32409L15.6637 0.150225C14.209 -0.0406831 12.8362 0.869647 12.4458 2.2838L10.723 8.47755L8.51078 7.64846C7.75174 7.36483 6.90629 7.75038 6.62266 8.50942C6.56122 8.67363 6.52993 8.8476 6.52993 9.02272V13.3634C2.4379 14.9532 -0.0734792 17.189 -0.0734792 19.7032C-0.0734792 22.9573 4.04468 27.0404 9.81671 29.5966L8.13959 37.3121H5.79616C2.55589 37.3156 -0.0697471 39.9415 -0.0734792 43.1815C-0.0734792 43.5868 0.25494 43.9153 0.660297 43.9153H43.2147C43.6201 43.9153 43.9485 43.5868 43.9485 43.1815C43.9448 39.9415 41.3191 37.3156 38.0789 37.3121H35.7354L34.058 29.5966C39.8303 27.0401 43.9485 22.9573 43.9485 19.7032ZM11.6994 11.8783C11.681 11.7976 11.6695 11.7152 11.6658 11.6326V10.8988C11.6658 10.0884 12.3226 9.43152 13.1331 9.43152C13.9435 9.43152 14.6006 10.0884 14.6006 10.8988V11.3839C13.597 11.5217 12.6298 11.6865 11.6994 11.8783ZM15.4633 9.13439L17.8449 7.09325L18.8178 10.9817C17.8796 11.0331 16.963 11.1063 16.0679 11.2019V10.8988C16.065 10.2615 15.8526 9.64281 15.4633 9.13784V9.13439ZM20.3152 10.9238L19.9133 9.31468C22.2447 9.0098 24.6079 9.04425 26.9295 9.41688C29.5598 9.94338 31.4353 10.4725 32.2526 10.7185L32.5997 11.9656C29.093 11.2355 25.5191 10.8778 21.9375 10.8988C21.3909 10.8988 20.8518 10.9091 20.3152 10.9238ZM13.8588 2.6771C14.0494 1.97806 14.7215 1.52275 15.4412 1.60515L18.3608 2.10323L18.3401 2.10696L18.6103 3.54925L22.528 2.81576H22.5464V2.81117L28.3543 1.72256C29.1062 1.5862 29.8379 2.04553 30.0421 2.78189L31.7881 9.05717C30.7661 8.77324 29.2112 8.37707 27.2158 7.97861C24.6808 7.56291 22.0977 7.52933 19.553 7.87899L19.2674 6.7367C19.071 5.95039 18.2747 5.47211 17.4883 5.66847C17.267 5.72359 17.062 5.82953 16.8889 5.97795L14.2923 8.20483C13.9263 8.04607 13.5318 7.96425 13.1331 7.96397C12.8701 7.9677 12.6088 8.00703 12.3568 8.08138L13.8588 2.6771ZM7.9972 9.02272L10.3797 9.9164C10.2631 10.231 10.2017 10.5635 10.1982 10.8988V11.6326C10.2002 11.824 10.2218 12.0147 10.2623 12.2018C9.47107 12.3976 8.71633 12.6112 7.9972 12.8423V9.02272ZM1.39407 19.7032C1.39407 16.1604 9.64877 12.3663 21.9375 12.3663C34.2262 12.3663 42.4812 16.1601 42.4812 19.7032C42.4812 21.966 39.2315 25.6309 33.7399 28.1342L32.2092 21.0921V19.8207L34.2036 20.4077L34.6173 19.0005L22.1445 15.3319C22.0093 15.2923 21.8657 15.2923 21.7305 15.3319L9.25776 19.0005L9.67145 20.4077L11.6658 19.8207V21.0921L10.1354 28.1356C4.64353 25.6309 1.39407 21.966 1.39407 19.7032ZM32.2092 38.7794V42.448H30.742V38.7794H32.2092ZM29.2744 42.448H14.6006V38.7794H16.8016C17.2067 38.7794 17.5351 38.451 17.5351 38.0456V33.2635L19.2464 34.3165C20.8951 35.3376 22.9799 35.3376 24.6286 34.3165L26.3399 33.2635V38.0456C26.3399 38.451 26.6683 38.7794 27.0734 38.7794H29.2744V42.448ZM13.1331 38.7794V42.448H11.6658V38.7794H13.1331ZM26.2027 31.6251L23.8607 33.0659C22.6825 33.796 21.1925 33.796 20.0144 33.0659L17.6724 31.6251C14.8607 29.8805 13.1454 26.8108 13.1331 23.5016V19.3929L21.9375 16.8029L30.742 19.3929V23.5053C30.7285 26.8131 29.0132 29.8811 26.2027 31.6251ZM12.0327 26.3029C12.6723 28.6949 14.0925 30.8049 16.0679 32.298V37.3121H9.64159L12.0327 26.3029ZM5.79616 38.7794H10.1982V42.448H1.45493C1.81579 40.3311 3.6488 38.7823 5.79616 38.7794ZM42.4201 42.448H33.6768V38.7794H38.0789C40.2262 38.7823 42.0595 40.3311 42.4201 42.448ZM27.8071 37.3121V32.298C29.7825 30.8049 31.2027 28.6949 31.8423 26.3029L34.2334 37.3121H27.8071Z" fill="#FF85A5"/>
<path d="M20.743 22.6912L19.5303 22.2055C17.7682 21.5016 15.7725 21.7094 14.1932 22.7616L15.0077 23.9825C16.1844 23.1979 17.6718 23.0429 18.9852 23.568L20.1972 24.0531L20.743 22.6912Z" fill="#FF85A5"/>
<path d="M29.6818 22.761C28.1028 21.708 26.1065 21.5002 24.3447 22.2058L23.132 22.6907L23.6778 24.0526L24.8893 23.5683C26.2024 23.0418 27.6906 23.1965 28.8673 23.982L29.6818 22.761Z" fill="#FF85A5"/>
<path d="M21.9375 29.6682L19.8832 29.2568L19.5898 30.6948L21.6493 31.1071C22.9256 31.3646 24.2167 30.7347 24.7991 29.57L23.4857 28.9141C23.1987 29.4856 22.5645 29.7945 21.9375 29.6682Z" fill="#FF85A5"/>
</g>
<defs>
<clipPath id="clip0">
<rect width="44" height="44" fill="white"/>
</clipPath>
</defs>
</svg>
