<svg width="135" height="120" viewBox="0 0 135 120" fill="none" xmlns="http://www.w3.org/2000/svg">
<g opacity="0.15">
<path d="M0 77.6864C0 34.4729 39.897 8.14343 46.0935 4.86143C50.5815 2.41643 54.7365 0.773926 57.5835 0.773926C60.063 0.773926 61.704 1.97993 61.704 4.05743C61.704 6.13343 59.6265 8.57993 57.5835 10.2209C51.855 14.3414 35.775 35.7464 35.775 55.9124C35.775 61.2389 38.6565 66.1634 41.9385 67.8374C45.657 69.8804 62.9415 73.5989 62.9415 95.3729C62.9415 108.136 52.6575 119.223 38.253 119.223C19.329 119.224 0 104.854 0 77.6864Z" fill="#FF85A5"/>
<path d="M72.021 77.6864C72.021 34.4729 111.953 8.14343 118.116 4.86143C122.64 2.41643 126.759 0.773926 129.639 0.773926C132.117 0.773926 133.727 1.97993 133.727 4.05743C133.727 6.13343 131.685 8.57993 129.639 10.2209C123.879 14.3414 107.834 35.7464 107.834 55.9124C107.834 61.2389 110.714 66.1634 113.997 67.8374C117.716 69.8819 135 73.5989 135 95.3744C135 108.138 124.681 119.224 110.277 119.224C91.383 119.224 72.021 104.854 72.021 77.6864Z" fill="#FF85A5"/>
</g>
</svg>
