<svg width="45" height="36" viewBox="0 0 45 36" fill="none" xmlns="http://www.w3.org/2000/svg">
<g clip-path="url(#clip0)">
<path fill-rule="evenodd" clip-rule="evenodd" d="M34.4766 10.4349C34.7846 10.7915 35.0118 11.1967 35.1577 11.6511C35.6281 11.3266 36.1467 11.1646 36.714 11.1646C37.6062 11.1646 38.352 11.5295 38.9528 12.2592C39.52 12.9242 39.8041 13.7021 39.8041 14.5943C40.2089 14.3672 40.6793 14.2538 41.214 14.2538C42.0901 14.2538 42.8281 14.6026 43.428 15.2998C43.9792 15.9482 44.2706 16.7592 44.3041 17.7322C44.596 22.2891 44.2711 26.5293 43.3312 30.4538L42.8685 32.0106C42.8038 32.2378 42.6661 32.408 42.455 32.5214C42.2439 32.6347 42.0254 32.6513 41.7983 32.57C41.5711 32.5053 41.4013 32.3672 41.287 32.1565C41.1901 31.9454 41.1741 31.7269 41.2383 31.4997L41.6761 30.0403C42.5674 26.3104 42.8763 22.2405 42.6005 17.8295V17.7808C42.6005 17.2296 42.438 16.7675 42.114 16.3943C41.8707 16.1025 41.5706 15.9565 41.213 15.9565C40.8404 15.9565 40.5164 16.1025 40.24 16.3943C39.9647 16.7509 39.8265 17.1727 39.8265 17.6592V21.7943C39.8265 22.0215 39.7458 22.2239 39.5833 22.4025C39.4047 22.5645 39.2024 22.6457 38.9752 22.6457C38.7319 22.6457 38.5296 22.5645 38.3671 22.4025C38.2056 22.2239 38.1238 22.0215 38.1238 21.7943V14.6916C38.1238 14.1886 37.9701 13.743 37.6621 13.3538C37.3703 13.0293 37.054 12.8673 36.713 12.8673C36.373 12.8673 36.0563 13.0293 35.7649 13.3538C35.5056 13.6783 35.3591 14.067 35.327 14.5214V19.143C35.327 19.3702 35.2463 19.5726 35.0838 19.7511C34.9223 19.9131 34.7189 19.9943 34.4757 19.9943C34.2485 19.9943 34.0461 19.9131 33.8675 19.7511C33.706 19.5726 33.6243 19.3702 33.6243 19.143V12.8673C33.6243 12.3482 33.4789 11.9026 33.1865 11.5295C32.8946 11.205 32.5871 11.043 32.2631 11.043C31.906 11.043 31.582 11.205 31.2901 11.5295C31.0138 11.8861 30.8757 12.3079 30.8757 12.7943V17.0025C30.8757 17.2457 30.7949 17.4486 30.6324 17.6106C30.4549 17.7726 30.2515 17.8538 30.0243 17.8538C29.7811 17.8538 29.5787 17.7726 29.4162 17.6106C29.2547 17.4486 29.173 17.2457 29.173 17.0025V3.98894C29.173 3.46986 29.0192 3.01597 28.7113 2.62678C28.5984 2.49689 28.4768 2.39181 28.3464 2.31056L28.2734 2.28624C28.1606 2.205 27.9981 2.16462 27.787 2.16462C27.4309 2.16462 27.1059 2.31835 26.814 2.62678C26.5221 2.99991 26.3761 3.45381 26.3761 3.98894V17.5862C26.3922 17.6023 26.3922 17.6106 26.3761 17.6106V22.3052C26.3761 22.5323 26.2954 22.7347 26.1329 22.9133C25.9714 23.0753 25.768 23.1565 25.5248 23.1565C25.2976 23.1565 25.0952 23.0753 24.9167 22.9133C24.7552 22.7347 24.6734 22.5323 24.6734 22.3052V18.8997C24.187 19.1916 23.8221 19.4266 23.5789 19.6052C22.3957 20.4808 21.8041 21.4538 21.8041 22.5241C21.8041 24.5999 22.5898 26.7974 24.1636 29.116C25.266 30.77 26.5712 32.2699 28.0793 33.616L28.5172 34.0052C28.6957 34.1511 28.8013 34.3379 28.8334 34.5646C28.8655 34.8079 28.8086 35.019 28.6631 35.197C28.4846 35.4242 28.2574 35.5376 27.982 35.5376C27.8035 35.5376 27.6332 35.4729 27.4707 35.343L26.9356 34.9052C25.3307 33.4783 23.9272 31.8646 22.7275 30.0646C20.9761 27.4702 20.1014 24.9565 20.1014 22.5241C20.1014 20.87 20.928 19.4349 22.5825 18.2187C23.2145 17.7482 23.9116 17.3508 24.6739 17.0268V3.98894C24.6739 3.04808 24.9503 2.22932 25.5014 1.53218C26.1173 0.818509 26.8792 0.461914 27.7874 0.461914C28.2739 0.461914 28.7118 0.575265 29.1014 0.802454C29.4415 0.9484 29.7494 1.19991 30.0248 1.55651C30.593 2.22154 30.8762 3.03202 30.8762 3.98894V9.70516C31.2979 9.46191 31.7606 9.34029 32.2636 9.34029C33.1388 9.34029 33.8773 9.70516 34.4766 10.4349ZM40.2906 35.0268C40.1928 34.8161 40.1851 34.5972 40.2658 34.37L40.3388 34.1268C40.4196 33.8996 40.566 33.7376 40.7766 33.6403C40.9868 33.543 41.2062 33.5269 41.4334 33.5916C41.6606 33.6729 41.8221 33.8188 41.9199 34.0295C42.0327 34.2401 42.0493 34.459 41.9685 34.6862L41.8469 34.9781C41.7165 35.3513 41.4499 35.5376 41.0442 35.5376C40.9474 35.5376 40.8496 35.5133 40.7523 35.4646C40.5417 35.3834 40.3879 35.2374 40.2906 35.0268ZM15.3091 2.09164L18.301 5.05921C18.4956 5.22121 18.5929 5.42408 18.5929 5.66732C18.6089 5.91056 18.5281 6.1217 18.3496 6.29975L15.3091 9.34029C15.1476 9.50229 14.9442 9.58353 14.701 9.58353C14.4738 9.58353 14.2801 9.50229 14.1177 9.34029C13.9552 9.17829 13.8744 8.9837 13.8744 8.75651C13.8744 8.51326 13.9552 8.3104 14.1177 8.1484L15.8204 6.42137H4.11988C3.87664 6.42137 3.67426 6.34013 3.51177 6.17813C3.35026 6.01613 3.26853 5.81327 3.26853 5.57002C3.26853 5.34283 3.35026 5.14045 3.51177 4.96191C3.67426 4.79991 3.87664 4.71867 4.11988 4.71867H15.5523L14.1177 3.28354C13.9552 3.12154 13.8744 2.92694 13.8744 2.69975C13.8744 2.45651 13.9552 2.25364 14.1177 2.09164C14.2801 1.92964 14.4825 1.8484 14.7258 1.8484C14.9525 1.8484 15.1476 1.92964 15.3091 2.09164ZM14.8226 13.8403H3.14691L4.82577 15.543C5.00431 15.7215 5.09285 15.9239 5.09285 16.1511C5.09285 16.3778 5.00431 16.5729 4.82577 16.7349C4.64723 16.9134 4.45215 17.0025 4.2415 17.0025C4.01431 17.0025 3.81193 16.9129 3.63339 16.7349L0.617663 13.6943C0.455177 13.5323 0.37442 13.3295 0.37442 13.0862C0.37442 12.859 0.455177 12.6645 0.617663 12.5025L3.63339 9.48624C3.79588 9.32424 3.99826 9.24299 4.2415 9.24299C4.46869 9.24299 4.66328 9.32424 4.82577 9.48624C5.00431 9.64824 5.09285 9.8511 5.09285 10.0943C5.09285 10.3215 5.00431 10.5161 4.82577 10.6781L3.39015 12.1376H14.8226C15.0658 12.1376 15.2692 12.2188 15.4307 12.3808C15.5932 12.5428 15.6739 12.7457 15.6739 12.9889C15.6739 13.2156 15.5932 13.4185 15.4307 13.597C15.2692 13.759 15.0658 13.8403 14.8226 13.8403ZM18.5929 12.9889C18.5929 13.2156 18.5121 13.4185 18.3496 13.597C18.1881 13.759 17.9847 13.8403 17.7415 13.8403H17.5712C17.344 13.8403 17.1417 13.759 16.9631 13.597C16.8016 13.4185 16.7199 13.2156 16.7199 12.9889C16.7199 12.7457 16.8016 12.5428 16.9631 12.3808C17.1417 12.2188 17.344 12.1376 17.5712 12.1376H17.7415C17.9847 12.1376 18.1881 12.2188 18.3496 12.3808C18.5121 12.5428 18.5929 12.7457 18.5929 12.9889ZM1.37172 4.71867C1.59891 4.71867 1.80129 4.79991 1.97983 4.96191C2.14134 5.14045 2.22307 5.34283 2.22307 5.57002C2.22307 5.81327 2.14134 6.01613 1.97983 6.17813C1.80129 6.34013 1.59891 6.42137 1.37172 6.42137H1.20096C0.973772 6.42137 0.771393 6.34013 0.592853 6.17813C0.431339 6.01613 0.349609 5.81327 0.349609 5.57002C0.349609 5.34283 0.431339 5.14045 0.592853 4.96191C0.771393 4.79991 0.973772 4.71867 1.20096 4.71867H1.37172Z" fill="#FF85A5"/>
</g>
<defs>
<clipPath id="clip0">
<rect width="44.7568" height="36" fill="white"/>
</clipPath>
</defs>
</svg>
