<svg width="48" height="10" viewBox="0 0 48 10" fill="none" xmlns="http://www.w3.org/2000/svg">
<g clip-path="url(#clip0)">
<path d="M46.9374 9.99999C43.6874 9.99999 41.9999 7.74998 40.7499 6.12498C39.5624 4.56249 38.9375 3.74999 37.5625 3.74999C36.1875 3.74999 35.5625 4.56249 34.375 6.12498C33.125 7.74998 31.5 9.99999 28.1875 9.99999C24.9375 9.99999 23.25 7.74998 22 6.12498C20.8125 4.56249 20.1875 3.74999 18.8125 3.74999C17.4375 3.74999 16.8125 4.56249 15.625 6.12498C14.375 7.74998 12.75 9.99999 9.43749 9.99999C6.1875 9.99999 4.49999 7.74998 3.24999 6.12498C2.06249 4.56249 1.43751 3.74999 0.0625076 3.74999V0C3.3125 0 5 2.24997 6.24999 3.87496C7.43749 5.43746 8.0625 6.24999 9.43749 6.24999C10.75 6.24999 11.4375 5.43746 12.625 3.87496C13.875 2.24997 15.5 0 18.8125 0C22.125 0 23.75 2.24997 25 3.87496C26.1875 5.43746 26.8125 6.24999 28.1875 6.24999C29.5 6.24999 30.1874 5.43746 31.3749 3.87496C32.6249 2.24997 34.25 0 37.5625 0C40.8125 0 42.4999 2.24997 43.7499 3.87496C44.9374 5.43746 45.5624 6.24999 46.9374 6.24999V9.99999Z" fill="#FFA3BB"/>
</g>
<defs>
<clipPath id="clip0">
<rect width="47.4999" height="10" fill="white"/>
</clipPath>
</defs>
</svg>
