<svg width="236" height="28" viewBox="0 0 236 28" fill="none" xmlns="http://www.w3.org/2000/svg">
<path d="M41.7939 21H39.8101V10.5659H36.2407V8.86426H45.3633V10.5659H41.7939V21ZM58.5018 21H56.5096V15.5298H50.9148V21H48.931V8.86426H50.9148V13.8281H56.5096V8.86426H58.5018V21ZM70.2623 21H63.3976V8.86426H70.2623V10.541H65.3814V13.8447H69.9552V15.5049H65.3814V19.3149H70.2623V21Z" fill="url(#paint0_linear)"/>
<path d="M85.9558 21L82.4362 10.8647H82.3698C82.4639 12.37 82.5109 13.7811 82.5109 15.0981V21H80.7097V8.86426H83.507L86.8771 18.5181H86.927L90.3967 8.86426H93.2023V21H91.2932V14.9985C91.2932 14.3953 91.307 13.6095 91.3347 12.6411C91.3679 11.6727 91.3955 11.0861 91.4177 10.8813H91.3513L87.7072 21H85.9558ZM105.627 21L104.415 17.6299H99.7749L98.5879 21H96.4961L101.037 8.81445H103.195L107.735 21H105.627ZM103.892 15.9199L102.755 12.6162C102.672 12.3949 102.556 12.0462 102.406 11.5703C102.262 11.0944 102.163 10.7458 102.107 10.5244C101.958 11.2051 101.739 11.9494 101.452 12.7573L100.356 15.9199H103.892ZM120.351 21H118.018L113.021 14.8491V21H111.037V8.86426H113.021V14.7412L117.935 8.86426H120.11L115.213 14.7246L120.351 21ZM123.661 8.86426H125.479V15.1729C125.479 15.8314 125.463 16.4982 125.429 17.1733C125.396 17.8429 125.371 18.2967 125.355 18.5347H125.429L131.63 8.86426H133.946V21H132.12V14.7412C132.12 13.7839 132.172 12.6217 132.277 11.2549H132.211L125.985 21H123.661V8.86426ZM142.66 16.1357L139.655 21H137.389L140.809 15.6792C139.26 15.1424 138.485 14.0135 138.485 12.2925C138.485 11.1802 138.869 10.3307 139.639 9.74414C140.408 9.15755 141.539 8.86426 143.034 8.86426H146.678V21H144.685V16.1357H142.66ZM144.685 10.5244H143.108C142.273 10.5244 141.631 10.6738 141.183 10.9727C140.74 11.266 140.518 11.7474 140.518 12.417C140.518 13.07 140.734 13.5791 141.166 13.9443C141.598 14.3096 142.267 14.4922 143.175 14.4922H144.685V10.5244ZM154.62 14.7246L150.187 8.86426H152.312L156.629 14.7412V8.86426H158.513V14.7412L162.829 8.86426H164.954L160.522 14.7246L165.145 21H162.954L158.513 14.8491V21H156.629V14.8491L152.188 21H149.98L154.62 14.7246ZM183.694 21H181.71V10.5659H178.257C177.82 14.1076 177.469 16.5176 177.203 17.7959C176.943 19.0742 176.575 19.9652 176.099 20.4688C175.623 20.9668 174.992 21.2075 174.206 21.1909C173.802 21.1909 173.418 21.1217 173.053 20.9834V19.3315C173.368 19.4699 173.675 19.5391 173.974 19.5391C174.372 19.5391 174.682 19.3011 174.904 18.8252C175.13 18.3438 175.377 17.284 175.642 15.646C175.914 14.008 176.235 11.7474 176.605 8.86426H183.694V21ZM195.471 21H188.607V8.86426H195.471V10.541H190.59V13.8447H195.164V15.5049H190.59V19.3149H195.471V21ZM207.008 8.86426V10.5659H201.787V21H199.803V8.86426H207.008ZM219.997 21H217.664L212.667 14.8491V21H210.683V8.86426H212.667V14.7412L217.581 8.86426H219.756L214.859 14.7246L219.997 21ZM234.082 14.9155C234.082 16.8911 233.586 18.4268 232.596 19.5225C231.611 20.6182 230.213 21.166 228.404 21.166C226.572 21.166 225.164 20.6237 224.179 19.5391C223.199 18.4489 222.709 16.9022 222.709 14.8989C222.709 12.8957 223.202 11.3573 224.187 10.2837C225.178 9.21012 226.589 8.67334 228.42 8.67334C230.224 8.67334 231.619 9.21842 232.604 10.3086C233.589 11.3988 234.082 12.9344 234.082 14.9155ZM224.818 14.9155C224.818 16.4097 225.119 17.5441 225.723 18.3188C226.326 19.0881 227.22 19.4727 228.404 19.4727C229.583 19.4727 230.471 19.0908 231.068 18.3271C231.672 17.5635 231.973 16.4263 231.973 14.9155C231.973 13.4269 231.674 12.298 231.077 11.5288C230.485 10.7596 229.599 10.375 228.42 10.375C227.231 10.375 226.331 10.7596 225.723 11.5288C225.119 12.298 224.818 13.4269 224.818 14.9155Z" fill="#1A1A1A"/>
<path d="M25.6489 15.677C25.6467 14.4557 24.7129 13.4479 23.5225 13.3273V12.4687C23.5225 9.27425 21.9402 6.44249 19.5183 4.71579C19.1 2.0103 16.7733 0 14.007 0C11.2407 0 8.914 2.0103 8.49559 4.71579C6.07366 6.44249 4.49139 9.27425 4.49139 12.4687V13.3263C3.29439 13.4403 2.35333 14.4509 2.35109 15.677L2.34858 17.0622C2.34743 17.695 2.59303 18.2902 3.0401 18.7381C3.48722 19.1859 4.08194 19.4326 4.71473 19.4326H4.97969C6.18095 23.5832 9.50413 26.8954 13.8683 27.9836C13.9118 27.9945 13.9562 27.9999 14.0007 27.9999C14.045 27.9999 14.0893 27.9945 14.1325 27.9838L14.1417 27.9815C15.1423 27.7322 16.108 27.3596 17.012 26.8735C17.278 26.7306 17.3777 26.399 17.2347 26.1329C17.0917 25.8669 16.7603 25.7672 16.494 25.9102C15.7074 26.3331 14.8691 26.662 14.0009 26.8886C9.03891 25.5883 5.58508 21.1226 5.58508 15.9813V15.2831L5.82111 15.2297C8.93457 14.5251 11.9331 13.2528 14.6151 11.5106C16.4587 13.9129 19.3169 15.3322 22.3659 15.3322H22.4288V15.9781C22.4288 17.8336 21.966 19.6764 21.0905 21.3075C20.9476 21.5736 21.0475 21.9052 21.3136 22.0479C21.3959 22.0922 21.4845 22.1131 21.5718 22.1131C21.7668 22.1131 21.9555 22.0086 22.0541 21.8248C22.4626 21.0638 22.7882 20.2607 23.0287 19.4327H23.2853C23.9181 19.4327 24.5128 19.186 24.9599 18.7382C25.407 18.2903 25.6525 17.6951 25.6514 17.0622L25.6489 15.677ZM4.71473 18.3389C4.37441 18.3389 4.05466 18.2062 3.8142 17.9654C3.57379 17.7246 3.44167 17.4045 3.44232 17.0642L3.44484 15.6791C3.44599 15.0558 3.8983 14.5364 4.49139 14.4295V15.9813C4.49139 16.7848 4.56839 17.5733 4.71599 18.3389H4.71473ZM14.007 1.09375C15.8854 1.09375 17.511 2.24677 18.1735 3.91517C16.9144 3.29939 15.5005 2.95311 14.007 2.95311C12.5135 2.95311 11.0995 3.29939 9.84041 3.91523C10.503 2.24677 12.1286 1.09375 14.007 1.09375ZM22.4288 13.9999V14.2384H22.3659C19.6796 14.2384 17.1597 12.9982 15.5214 10.8955C15.9 10.6271 16.2718 10.3493 16.6355 10.0618C16.8724 9.87444 16.9126 9.53052 16.7253 9.29361C16.538 9.05676 16.194 9.01657 15.9571 9.20376C12.9324 11.5953 9.34598 13.3096 5.58519 14.1617V13.9999V12.4687C5.58513 7.82487 9.36315 4.04686 14.007 4.04686C18.6508 4.04686 22.4288 7.82487 22.4288 12.4687V13.9999ZM24.1859 17.9654C23.9473 18.2043 23.6307 18.3366 23.2934 18.3386C23.4444 17.5624 23.5226 16.7713 23.5226 15.978V14.4319C24.1088 14.5444 24.5541 15.0606 24.5552 15.679L24.5577 17.0641C24.5584 17.4045 24.4263 17.7245 24.1859 17.9654Z" fill="url(#paint1_linear)"/>
<path d="M11.6337 16.165C11.4201 15.9515 11.0739 15.9515 10.8603 16.165C10.2896 16.7358 9.36107 16.7357 8.79036 16.165C8.57675 15.9515 8.23058 15.9515 8.01692 16.165C7.80336 16.3786 7.80336 16.7248 8.01692 16.9384C8.5155 17.437 9.17043 17.6863 9.82531 17.6863C10.4802 17.6863 11.1351 17.437 11.6337 16.9384C11.8473 16.7249 11.8473 16.3786 11.6337 16.165Z" fill="url(#paint2_linear)"/>
<path d="M19.983 16.165C19.7694 15.9515 19.4232 15.9515 19.2096 16.165C18.639 16.7357 17.7104 16.7358 17.1397 16.165C16.9261 15.9515 16.5799 15.9515 16.3662 16.165C16.1527 16.3786 16.1527 16.7248 16.3662 16.9384C16.8648 17.437 17.5197 17.6863 18.1746 17.6863C18.8295 17.6863 19.4844 17.437 19.983 16.9384C20.1966 16.7249 20.1966 16.3786 19.983 16.165Z" fill="url(#paint3_linear)"/>
<path d="M18.1786 8.01504C17.9773 7.78984 17.6316 7.77031 17.4064 7.97162L17.3989 7.97835C17.1737 8.17965 17.1542 8.52533 17.3554 8.75053C17.4635 8.87144 17.6131 8.93302 17.7635 8.93302C17.8931 8.93302 18.0233 8.88714 18.1276 8.79395L18.1352 8.78722C18.3604 8.58592 18.3798 8.24024 18.1786 8.01504Z" fill="url(#paint4_linear)"/>
<path d="M23.8148 25.6591L20.7935 22.638L19.6317 19.6005C19.4523 19.1316 18.9639 18.8565 18.4695 18.9468C16.4077 19.3234 14.7695 20.9616 14.3934 23.0217L14.391 23.0345C14.3033 23.5149 14.5671 23.9992 15.0182 24.1861L17.9994 25.4211L20.4182 27.8398C20.525 27.9465 20.6649 28 20.8048 28C20.9448 28 21.0847 27.9465 21.1915 27.8398C21.4051 27.6262 21.4051 27.28 21.1915 27.0664L19.0827 24.9575L20.3245 23.7157L23.0413 26.4326C23.2549 26.6461 23.6011 26.6461 23.8148 26.4326C24.0283 26.219 24.0283 25.8727 23.8148 25.6591ZM18.181 24.3124L15.4743 23.1911C15.7769 21.6013 17.037 20.3379 18.6251 20.0304L19.6869 22.8064L18.181 24.3124Z" fill="#1A1A1A"/>
<path d="M25.2219 27.0664C25.1202 26.9646 24.9791 26.9062 24.8353 26.9062C24.6914 26.9062 24.5503 26.9646 24.4481 27.0664C24.3464 27.1681 24.2884 27.3092 24.2884 27.453C24.2884 27.5969 24.3464 27.7379 24.4481 27.8396C24.5503 27.9413 24.6914 27.9999 24.8353 27.9999C24.9791 27.9999 25.1202 27.9414 25.2219 27.8396C25.3236 27.7379 25.3821 27.5969 25.3821 27.453C25.3821 27.3092 25.3236 27.1681 25.2219 27.0664Z" fill="#1A1A1A"/>
<defs>
<linearGradient id="paint0_linear" x1="36" y1="15.1864" x2="235.928" y2="10.6094" gradientUnits="userSpaceOnUse">
<stop stop-color="#FF6DC4"/>
<stop offset="1" stop-color="#FF60A3"/>
</linearGradient>
<linearGradient id="paint1_linear" x1="2.34857" y1="15.1864" x2="25.6551" y2="15.1242" gradientUnits="userSpaceOnUse">
<stop stop-color="#FF6DC4"/>
<stop offset="1" stop-color="#FF60A3"/>
</linearGradient>
<linearGradient id="paint2_linear" x1="7.85675" y1="16.9168" x2="11.7943" y2="16.8873" gradientUnits="userSpaceOnUse">
<stop stop-color="#FF6DC4"/>
<stop offset="1" stop-color="#FF60A3"/>
</linearGradient>
<linearGradient id="paint3_linear" x1="16.2061" y1="16.9168" x2="20.1436" y2="16.8873" gradientUnits="userSpaceOnUse">
<stop stop-color="#FF6DC4"/>
<stop offset="1" stop-color="#FF60A3"/>
</linearGradient>
<linearGradient id="paint4_linear" x1="17.2164" y1="8.4294" x2="18.3178" y2="8.42587" gradientUnits="userSpaceOnUse">
<stop stop-color="#FF6DC4"/>
<stop offset="1" stop-color="#FF60A3"/>
</linearGradient>
</defs>
</svg>
