<svg width="221" height="24" viewBox="0 0 221 24" fill="none" xmlns="http://www.w3.org/2000/svg">
<path d="M29.1301 5.62869C31.433 4.75769 34.0452 4.82376 36.3604 5.62195C36.1784 6.70194 35.9868 7.78059 35.8021 8.86058C34.5446 8.26058 33.112 7.98958 31.7203 8.16216C31.1142 8.24575 30.43 8.47496 30.1454 9.05743C29.9716 9.44035 30.1987 9.87046 30.5107 10.1078C31.6465 10.9896 33.1161 11.3185 34.2313 12.234C35.1262 12.9082 35.8062 13.9504 35.7542 15.0951C35.8172 16.5419 35.0577 17.9562 33.8686 18.7881C32.3498 19.8627 30.4314 20.1809 28.5992 20.1998C27.0995 20.1176 25.5601 19.9814 24.1616 19.4016C24.2985 18.2852 24.5365 17.181 24.7144 16.0686C26.2757 16.8088 28.0272 17.2592 29.765 17.0232C30.3 16.9288 30.8638 16.7509 31.2277 16.3302C31.5192 16.0066 31.5726 15.4821 31.3085 15.1288C30.9158 14.5895 30.2781 14.3131 29.6966 14.0232C28.4527 13.4543 27.1487 12.803 26.3605 11.6502C25.6244 10.6053 25.6955 9.18417 26.247 8.07452C26.8135 6.90824 27.9355 6.1006 29.1301 5.62869Z" fill="#0E4595"/>
<path d="M0.00136834 5.28178C2.14693 5.28448 4.29249 5.28313 6.43806 5.28043C6.97992 5.27639 7.57652 5.36807 7.97197 5.76717C8.30721 6.09481 8.39616 6.57076 8.48647 7.00896C8.91202 9.10961 9.38273 11.2035 9.80282 13.3055C8.73003 10.7047 6.6871 8.54737 4.1844 7.22199C2.87079 6.50739 1.45455 5.98694 0 5.62829C0 5.542 0.00136834 5.36807 0.00136834 5.28178Z" fill="#FFAA00"/>
<path d="M14.1547 5.27507C15.6038 5.2508 17.0515 5.27102 18.5006 5.26428C16.3988 10.1654 14.2272 15.0368 12.1186 19.9352C10.6709 19.9595 9.22184 19.9406 7.77276 19.946C6.57683 15.7042 5.35216 11.4705 4.18359 7.22202C6.6863 8.5474 8.72923 10.7047 9.80201 13.3056L9.8198 13.3393C9.95253 13.9595 10.0853 14.5811 10.1975 15.2067C11.5357 11.9033 12.8288 8.58246 14.1547 5.27507Z" fill="#0E4595"/>
<path d="M20.0936 5.26249C21.4551 5.26249 22.818 5.26923 24.1795 5.2598C23.3585 10.1582 22.4964 15.0498 21.648 19.9442C20.2811 19.9469 18.9141 19.9442 17.5471 19.9455C18.3982 15.0512 19.2302 10.1541 20.0936 5.26249Z" fill="#0E4595"/>
<path d="M46.7499 5.27011C45.5882 5.26876 44.4251 5.24179 43.2648 5.28089C42.4958 5.30786 41.7459 5.73662 41.4722 6.4674C39.4443 10.9667 37.4288 15.4727 35.4132 19.9774C36.8513 19.9842 38.2881 19.9761 39.7262 19.9815C40.0054 19.2493 40.2996 18.5239 40.5678 17.7878C42.2946 17.7675 44.0242 17.7541 45.751 17.7959C45.8988 18.5253 46.0726 19.2507 46.2327 19.9788C47.4998 19.9801 48.7669 19.9815 50.034 19.9774C48.9625 15.0696 47.8432 10.1725 46.7499 5.27011ZM41.7774 14.6948C42.4821 12.9244 43.1868 11.1541 43.8655 9.373C44.291 11.142 44.6618 12.9244 45.0559 14.7015C43.9626 14.6988 42.8693 14.7082 41.7774 14.6948Z" fill="#0E4595"/>
<path d="M71.6087 0.253068C72.6308 0.0198118 73.6051 -0.00985084 74.6491 0.0022839C77.4679 -0.0273788 80.2785 1.24138 82.3639 3.06698C87.5499 7.5393 86.343 8.38874 86.1884 10.3802C86.2185 10.4328 86.2253 10.5514 86.2281 10.6714C85.4987 12.3056 85.4495 14.4642 86.1391 14.4817C86.3321 19.6201 82.5691 20.6677 82.3598 20.8605C80.44 22.5419 77.9824 23.6947 75.4045 23.8646C73.8432 24.0061 72.7512 23.9684 71.4623 23.6421C68.1249 22.9046 65.1761 20.6853 63.5355 17.7338C61.368 13.9384 61.5541 8.95907 64.0459 5.3537C65.77 2.77575 68.5409 0.89621 71.6087 0.253068Z" fill="#FF0004"/>
<path d="M87.3299 9.59032L97.3188 8.95662L97.0315 15.9004H87.3299C85.2911 14.4442 85.0449 10.9656 87.3299 9.59032Z" fill="white"/>
<path d="M87.6442 0.299675C88.7238 0.0151832 89.694 0.0246213 90.7969 0.00439672C91.4291 -0.0023448 92.2843 0.0974297 92.9069 0.222822C95.571 0.760795 98.0464 2.19674 99.7965 4.25021C101.511 6.25109 102.565 8.81287 102.639 11.4394C102.767 13.9297 102.076 16.447 100.675 18.5247C98.8386 21.3332 95.7448 23.3166 92.3896 23.8087C91.2033 23.8694 90.1757 24.0163 88.8251 23.833C86.425 23.5633 84.1331 22.4779 82.3569 20.8734C82.5663 20.6806 82.8126 20.4555 83.0179 20.2586L81.7686 20.2546L81.0912 19.5103L83.6035 19.5359L84.1549 18.8294L80.5261 18.7728L80.0828 18.1566L84.5011 18.1391L84.9694 17.384L79.6408 17.411L79.3124 16.7382C81.2103 16.7004 83.3562 16.7382 85.2541 16.7247L85.5849 15.9926L79.0757 15.998L78.791 15.3036L85.8325 15.2834L86.1226 14.4946C85.433 14.4771 84.7023 14.4757 84.014 14.4906C84.0537 14.2668 84.0893 14.0416 84.1262 13.8164C84.7105 13.8178 85.2961 13.8178 85.8832 13.8191C86.4579 14.9827 88.0575 15.3117 89.1645 14.7441C89.2698 14.4704 89.3109 14.1791 89.3971 13.8987L89.4545 13.6371C89.4614 14.2479 89.6899 14.7225 90.0853 14.9072C90.7107 15.2146 91.451 15.038 92.0284 14.705C92.0558 14.7845 92.1119 14.9423 92.1392 15.0218C92.4745 15.0164 92.8111 15.0137 93.1477 15.0137C93.3365 13.989 93.5555 12.971 93.7429 11.9477C93.8962 11.3558 93.3995 10.8232 92.8494 10.6762C92.1091 10.4888 91.2922 10.5036 90.567 10.7436C90.3426 11.0362 90.307 11.4205 90.1907 11.7589C90.8174 11.6457 91.4646 11.523 92.1023 11.6281C92.3664 11.6605 92.3883 11.9315 92.4143 12.1607C91.6589 12.2335 90.9843 12.1364 90.2947 12.5126C89.8678 12.7283 89.6406 12.9656 89.4915 13.5913C89.0988 13.7477 88.7129 13.9877 88.2709 13.9337C87.6798 13.931 87.0736 13.5387 87.0038 12.9279C86.9327 12.1769 87.179 11.314 87.8098 10.8434C88.442 10.4052 89.2424 10.6344 89.9034 10.8744C89.9595 10.4942 90.0115 10.114 90.0525 9.73106C88.7813 9.28612 87.0093 9.48567 86.2116 10.6978L86.1856 10.3931C83.6445 10.3836 81.1022 10.3971 78.5612 10.3809C78.5967 10.145 78.6337 9.90769 78.6693 9.67174L86.1308 9.71893L85.9324 8.94365L78.6925 8.92612L78.9621 8.23984L85.7682 8.2331L85.4569 7.47939C83.5754 7.48883 81.0912 7.48883 79.2098 7.48479L79.6238 6.82007C81.4246 6.78771 83.338 6.82951 85.1415 6.80659L84.6298 6.06233C83.1232 6.04884 81.4921 6.0866 79.9856 6.05424L80.485 5.39761L84.2931 5.39087L83.6684 4.61425L80.9216 4.58728L81.4374 3.89291L83.1738 3.91717C82.9139 3.62729 82.6498 3.34145 82.361 3.07988C83.8457 1.70056 85.6656 0.763492 87.6442 0.299675Z" fill="#FFAA00"/>
<path d="M63.1627 14.994C63.5158 13.2156 63.7634 11.4169 64.1342 9.64256C64.7692 9.65604 65.4027 9.65334 66.0376 9.6439C66.169 10.6565 66.1799 11.6771 66.2196 12.6951C66.704 11.6327 67.1049 10.6511 67.5948 9.65064C68.2694 9.65604 68.9454 9.63042 69.62 9.67626C69.2943 11.4506 69.0015 13.2317 68.6471 15.0021C68.2735 14.9953 67.8999 14.9953 67.5278 14.9967C67.7686 13.6753 68.0258 12.3567 68.2393 11.0313C67.6126 12.3257 67.1296 13.6821 66.5439 14.9953L65.2618 15.0021L65.2289 14.5477C65.1824 13.3679 65.1058 12.1895 65.0305 11.0111L64.3176 15.0034L63.1627 14.994Z" fill="white"/>
<path d="M99.8094 9.74495C100.187 9.70046 100.569 9.72608 100.949 9.74091C100.57 11.487 100.339 13.26 99.9763 15.0101C99.6097 15.0074 99.2157 15.0074 98.8518 15.0114C98.8559 14.9036 98.9188 14.6865 98.9229 14.5786C98.5946 14.8523 98.1883 15.1193 97.7327 15.0613C96.7505 14.9939 96.1964 14.1701 96.2457 13.3463C96.1403 12.118 97.0405 10.6227 98.4168 10.6726C98.8819 10.6753 99.1774 10.9463 99.5153 11.1849C99.6165 10.7036 99.6986 10.2371 99.8094 9.74495Z" fill="white"/>
<path d="M70.2048 10.7495C71.1145 10.5297 72.2062 10.4016 73.012 10.9733C73.4703 11.2942 73.339 11.9063 73.2747 12.3755C73.0982 13.2492 72.9477 14.1297 72.7439 14.9993C72.4224 14.9953 72.0995 14.998 71.7794 15.0061C71.7739 14.909 71.7643 14.7135 71.7602 14.6151C71.1638 15.0277 70.2992 15.2515 69.6521 14.8281C68.9831 14.3468 69.0761 13.291 69.6521 12.7733C70.2978 12.1423 71.2335 12.2488 72.0721 12.2191C72.105 12.0048 72.1009 11.6717 71.8245 11.6111C71.1829 11.4021 70.5057 11.6542 69.8559 11.7108C69.9653 11.3899 70.0283 11.0448 70.2048 10.7495Z" fill="white"/>
<path d="M74.5923 10.6649C75.2873 10.5005 76.0465 10.518 76.747 10.6353L76.5773 11.5602C76.0493 11.5494 75.4337 11.327 74.9726 11.6627C74.7961 11.8609 74.9767 12.1454 75.1737 12.2384C75.5828 12.4541 76.119 12.4973 76.3927 12.9126C76.7867 13.6487 76.3844 14.7004 75.5376 14.9094C74.7469 15.0941 73.9042 15.0429 73.1176 14.8582C73.1695 14.544 73.2366 14.2326 73.305 13.9211C73.8536 14.0492 74.4363 14.1786 74.9972 14.0451C75.2161 13.9454 75.3064 13.7404 75.2175 13.518C74.8057 13.1243 74.1285 13.1216 73.7811 12.6456C73.3734 11.9404 73.7373 10.8389 74.5923 10.6649Z" fill="white"/>
<path d="M95.4388 11.3025C95.7397 10.9034 96.1652 10.5811 96.7001 10.6418C96.6249 10.9627 96.5537 11.2836 96.4881 11.6045C96.1502 11.6773 95.7685 11.7137 95.5154 11.9739C95.2472 12.2086 95.1884 12.578 95.1241 12.907C94.9887 13.596 94.9285 14.2998 94.7288 14.9753C94.3553 15.009 93.9791 14.9968 93.6056 14.9995C93.8272 13.5488 94.0858 12.102 94.3621 10.6607C94.7356 10.6634 95.1104 10.662 95.4853 10.658C95.4675 10.8724 95.4525 11.0868 95.4388 11.3025Z" fill="white"/>
<path d="M97.95 11.9281C98.1675 11.6287 98.5903 11.5546 98.9268 11.6934C99.7805 12.2368 98.7175 14.2121 98.1183 14.0934C96.9814 14.0678 97.4082 12.5267 97.95 11.9281Z" fill="#FFAA00"/>
<path d="M78.1627 12.4956C78.1682 12.4619 78.1805 12.3918 78.186 12.3567L78.937 12.3729C78.9083 12.5927 78.8892 12.8138 78.8796 13.0349L78.2557 13.0376L78.1627 12.4956Z" fill="#FFAA00"/>
<path d="M84.373 12.3468C84.819 12.3562 85.265 12.3589 85.7124 12.3603C85.6987 12.5828 85.6932 12.8066 85.6987 13.0304C85.2171 13.0237 84.7356 13.021 84.254 13.0223C84.2896 12.7958 84.3265 12.5706 84.373 12.3468Z" fill="#FFAA00"/>
<path d="M70.5205 13.4585C70.8283 12.9879 71.4508 12.9434 71.9651 12.9623C71.9118 13.2859 71.8721 13.6553 71.5944 13.8765C71.3208 14.1502 70.7298 14.2553 70.5588 14.0827C70.4316 13.9614 70.3549 13.6405 70.5205 13.4585Z" fill="#FF0004"/>
<path d="M90.9428 13.3758C91.2643 12.9484 91.8484 12.9727 92.33 12.9619C92.2917 13.2855 92.2643 13.6617 91.9729 13.8734C91.7048 14.1579 91.0741 14.2091 90.9305 14.0904C90.6213 13.934 90.7184 13.574 90.9428 13.3758Z" fill="#FFAA00"/>
<path d="M84.2538 13.023C84.7354 13.0217 85.2169 13.0244 85.6985 13.0311C85.7327 13.2994 85.7956 13.5637 85.8832 13.8199C85.2963 13.8185 84.7107 13.8185 84.1266 13.8172C84.169 13.5529 84.2141 13.2873 84.2538 13.023Z" fill="#FF0004"/>
<path d="M79.9876 10.8439C80.7373 10.461 81.7647 10.4205 82.4419 10.9706C83.0438 11.5302 82.8838 12.412 82.7429 13.1266C81.8372 13.1252 80.9316 13.1131 80.0259 13.1319C80.1408 13.4636 80.2913 13.8263 80.6402 13.98C81.2941 14.2106 82.0151 14.069 82.6334 13.794C82.5623 14.1418 82.4925 14.4897 82.4255 14.8389C81.5308 15.0519 80.5088 15.122 79.6866 14.6407C79.1189 14.3198 78.889 13.6483 78.8822 13.0349C78.8918 12.8137 78.9109 12.5926 78.9397 12.3729C79.0984 11.7688 79.4021 11.1459 79.9876 10.8439Z" fill="white"/>
<path d="M80.2063 12.2974C80.3691 11.9118 80.6578 11.4021 81.1667 11.487C81.5894 11.5005 81.7372 11.9589 81.811 12.2974C81.2761 12.3162 80.7412 12.3176 80.2063 12.2974Z" fill="#FF0004"/>
<path d="M77.5436 9.64256C77.9198 9.6493 78.2961 9.64795 78.6709 9.67222C78.6353 9.90817 78.5984 10.1455 78.5628 10.3814C78.5546 10.4488 78.5355 10.585 78.5259 10.6524C78.753 10.6646 78.9828 10.67 79.2113 10.6767C79.1579 10.9666 79.1018 11.2578 79.0471 11.5477C78.8159 11.5437 78.5834 11.5383 78.3549 11.5329C78.2933 11.8066 78.2359 12.0803 78.188 12.3567C78.1825 12.3917 78.1702 12.4619 78.1647 12.4956C78.0731 13.0147 77.8309 13.9234 77.9281 14.0583C78.1086 14.2416 78.5341 14.0893 78.8392 14.096L78.5916 14.8618C78.151 15.0452 77.6408 15.0425 77.1838 14.9279C76.8815 14.874 76.6407 14.5827 76.7324 14.2753C76.9704 12.7261 77.2714 11.1864 77.5436 9.64256Z" fill="white"/>
<path d="M83.5074 10.6891C83.8973 10.6433 84.2926 10.6648 84.6853 10.6662C84.6606 10.8064 84.61 11.0882 84.584 11.2284C84.9493 10.832 85.4308 10.5947 85.9753 10.5529C85.8248 10.9372 85.6798 11.3228 85.5567 11.7165C85.0793 11.73 84.5991 11.9026 84.3733 12.3475C84.3268 12.5713 84.2899 12.7965 84.2543 13.023C84.2146 13.2873 84.1695 13.5529 84.1271 13.8172C84.0902 14.0423 84.0546 14.2675 84.0149 14.4913C83.9848 14.6531 83.9479 14.8136 83.9027 14.9713C83.5087 15.0104 83.1134 14.9956 82.7194 14.9969C83.0067 13.5664 83.1995 12.1156 83.5074 10.6891Z" fill="white"/>
<path fill-rule="evenodd" clip-rule="evenodd" d="M180.882 4.99927V5.00586C180.875 5.00586 178.767 4.99927 178.205 6.98416C177.69 8.80419 176.237 13.8291 176.197 13.9676H175.796C175.796 13.9676 174.31 8.83057 173.788 6.97757C173.226 4.99267 171.111 4.99927 171.111 4.99927H166.292V20.1003H171.111V11.132H171.312H171.512L174.323 20.1003H177.669L180.48 11.1386H180.882V20.1003H185.7V4.99927H180.882Z" fill="#00AE41"/>
<path fill-rule="evenodd" clip-rule="evenodd" d="M198.484 4.99924C198.484 4.99924 197.072 5.12453 196.41 6.58188L192.997 13.9675H192.595V4.99924H187.777V20.1002H192.327C192.327 20.1002 193.806 19.9684 194.469 18.5176L197.815 11.132H198.217V20.1002H203.035V4.99924H198.484Z" fill="#00AE41"/>
<path fill-rule="evenodd" clip-rule="evenodd" d="M205.178 11.8577V20.1006H209.996V15.2867H215.216C217.492 15.2867 219.419 13.8557 220.135 11.8577H205.178Z" fill="#00AE41"/>
<path fill-rule="evenodd" clip-rule="evenodd" d="M215.216 4.99924H204.501C205.037 7.87436 207.225 10.1824 210.056 10.9341C210.698 11.1056 211.374 11.1979 212.07 11.1979H220.329C220.402 10.855 220.436 10.5055 220.436 10.1428C220.436 7.30066 218.1 4.99924 215.216 4.99924Z" fill="url(#paint0_linear)"/>
<path d="M134.613 20.558C137.131 18.3254 138.53 15.1627 138.53 11.8139C138.53 8.37203 137.038 5.20926 134.613 3.06974C132.468 1.11627 129.576 0 126.592 0C120.063 0 114.654 5.30229 114.654 11.8139C114.654 18.3254 119.97 23.7207 126.592 23.7207C129.576 23.6277 132.374 22.5115 134.613 20.558Z" fill="#009DDD"/>
<path d="M142.168 0.279205C138.624 0.279205 135.173 1.86059 132.841 4.55824H135.266C135.639 4.93033 135.919 5.39545 136.199 5.86056H131.909C131.629 6.23265 131.442 6.69776 131.256 7.16287H136.945C137.131 7.53496 137.318 8.00008 137.411 8.37217H130.789C130.696 8.74426 130.51 9.20937 130.416 9.67448H137.784C138.251 11.721 138.157 13.9535 137.411 16H130.789C130.976 16.4651 131.069 16.8372 131.256 17.2093H136.945C136.758 17.6744 136.479 18.0465 136.292 18.5116H132.002C132.282 18.9767 132.561 19.3488 132.934 19.7209H135.359C134.986 20.186 134.613 20.5581 134.147 20.9302C136.385 22.8837 139.277 24 142.261 24C148.883 24 154.292 18.6977 154.292 12.0931C154.199 5.58149 148.883 0.279205 142.168 0.279205Z" fill="#ED1C2E"/>
<path d="M125.286 15.07H123.793L124.726 10.3258L122.674 15.07H121.275L120.995 10.3258L120.063 15.07H118.664L119.783 8.93051H122.115L122.208 12.7444L123.98 8.93051H126.405L125.286 15.07ZM142.074 14.977C141.7 15.07 141.327 15.163 140.954 15.163C140.208 15.163 139.742 14.7909 139.742 14.0468C139.742 13.8607 139.742 13.7677 139.742 13.5816L139.835 13.1165L139.928 12.7444L140.581 8.93051H142.074L141.887 10.0468H142.633L142.447 11.2561H141.7L141.327 13.3026C141.327 13.3956 141.327 13.3956 141.327 13.4886C141.327 13.7677 141.514 13.8607 141.794 13.8607C141.98 13.8607 142.074 13.8607 142.167 13.7677C142.26 13.8607 142.074 14.977 142.074 14.977ZM146.457 10.1398C146.364 10.0468 146.27 10.0468 146.27 10.0468H146.177C146.084 10.0468 146.084 10.0468 145.991 10.0468C145.524 10.0468 145.151 10.2328 144.685 10.884L144.778 10.1398H143.379L142.447 15.163H143.939C144.498 12.0933 144.685 11.5351 145.431 11.5351C145.524 11.5351 145.524 11.5351 145.618 11.5351H145.804C145.897 11.5351 146.457 10.1398 146.457 10.1398ZM136.105 11.6282C136.105 12.2793 136.478 12.6514 137.224 13.0235C137.877 13.3026 137.97 13.3026 137.97 13.5816C137.97 13.8607 137.69 14.0468 137.13 14.0468C136.664 14.0468 136.198 13.9537 135.731 13.8607L135.545 14.977H135.638L135.918 15.07C136.011 15.07 136.105 15.07 136.291 15.07C136.664 15.07 136.944 15.07 137.13 15.07C138.716 15.07 139.462 14.5119 139.462 13.3956C139.462 12.7444 139.182 12.2793 138.436 12.0003C137.783 11.7212 137.69 11.7212 137.69 11.4421C137.69 11.1631 137.97 11.07 138.436 11.07C138.716 11.07 139.182 11.07 139.555 11.1631L139.742 10.0468C139.276 9.95376 138.809 9.95376 138.436 9.95376C136.664 9.95376 136.105 10.6979 136.105 11.6282ZM130.136 15.07H128.923V14.5119C128.55 14.884 127.99 15.163 127.338 15.163C126.498 15.163 125.939 14.6049 125.939 13.7677C125.939 12.5584 126.871 11.8142 128.55 11.8142C128.737 11.8142 128.923 11.8142 129.203 11.8142C129.203 11.6282 129.296 11.5351 129.296 11.5351C129.296 11.1631 129.016 11.07 128.363 11.07C127.897 11.07 127.431 11.1631 127.151 11.1631L126.964 11.2561H126.871L127.058 10.1398C127.804 9.95376 128.27 9.86074 128.83 9.86074C130.136 9.86074 130.788 10.3259 130.788 11.3491C130.788 11.6282 130.788 11.8142 130.695 12.3723L130.415 14.1398L130.229 14.5119V14.7909V14.977L130.136 15.07ZM129.016 12.8375C128.923 12.8375 128.83 12.8375 128.643 12.8375C127.804 12.8375 127.338 13.1165 127.338 13.5816C127.338 13.8607 127.524 14.0468 127.897 14.0468C128.55 14.0468 129.016 13.5816 129.016 12.8375ZM135.079 14.977C134.612 15.07 134.053 15.163 133.586 15.163C131.908 15.163 131.068 14.4188 131.068 12.9305C131.068 11.2561 132.187 9.95376 133.68 9.95376C134.892 9.95376 135.731 10.6979 135.731 11.8142C135.731 12.1863 135.638 12.5584 135.545 13.0235H132.56C132.56 13.1165 132.56 13.1165 132.56 13.2095C132.56 13.7677 133.027 14.0468 133.866 14.0468C134.426 14.0468 134.892 13.9537 135.452 13.7677C135.358 13.6747 135.079 14.977 135.079 14.977ZM134.239 12.0003C134.239 11.9072 134.239 11.8142 134.239 11.7212C134.239 11.3491 133.959 11.07 133.493 11.07C133.027 11.07 132.654 11.3491 132.56 12.0003C132.654 12.0003 134.239 12.0003 134.239 12.0003ZM151.12 12.8375C150.934 14.5119 149.721 15.256 148.229 15.256C146.55 15.256 145.804 14.2328 145.804 12.9305C145.804 11.1631 146.923 9.95376 148.789 9.95376C150.374 9.95376 151.214 10.977 151.214 12.1863C151.12 12.4654 151.12 12.4654 151.12 12.8375ZM149.535 12.1863C149.535 11.6282 149.348 11.1631 148.695 11.1631C147.949 11.1631 147.483 12.0933 147.483 12.8375C147.483 13.4886 147.763 13.9537 148.322 13.9537C148.602 13.9537 149.348 13.4886 149.442 12.7444C149.535 12.5584 149.535 12.3723 149.535 12.1863Z" fill="white"/>
<defs>
<linearGradient id="paint0_linear" x1="204.503" y1="8.09857" x2="220.436" y2="8.09857" gradientUnits="userSpaceOnUse">
<stop offset="0.3" stop-color="#00B4E6"/>
<stop offset="1" stop-color="#088CCB"/>
</linearGradient>
</defs>
</svg>
